<svg width="177" height="30" viewBox="0 0 177 30" fill="none" xmlns="http://www.w3.org/2000/svg">
<g opacity="0.3">
<path d="M69.0607 3.05552C69.0607 1.57229 70.2579 0.372606 71.7316 0.372606C73.2103 0.372606 74.4121 1.57229 74.4121 3.05552C74.4121 4.53684 73.2103 5.73779 71.7316 5.73779C70.2579 5.73779 69.0607 4.53684 69.0607 3.05552Z" fill="white"/>
<path d="M111.282 20.9007C111.282 19.4169 112.479 18.2159 113.953 18.2159C115.431 18.2159 116.632 19.4169 116.632 20.9007C116.632 22.3808 115.431 23.583 113.953 23.583C112.479 23.583 111.282 22.3808 111.282 20.9007Z" fill="white"/>
<path d="M25.1425 19.7412C22.8378 19.7412 21.2362 17.9108 21.2362 15.2953C21.2362 12.6804 22.8378 10.8513 25.1425 10.8513C27.4603 10.8513 29.0795 12.6804 29.0795 15.2953C29.0795 17.9521 27.4941 19.7412 25.1425 19.7412ZM25.1425 6.94391C20.2667 6.94391 16.7281 10.4571 16.7281 15.2953C16.7281 20.1334 20.2667 23.646 25.1425 23.646C30.0365 23.646 33.5897 20.1334 33.5897 15.2953C33.5897 10.4571 30.0365 6.94391 25.1425 6.94391Z" fill="white"/>
<path d="M63.878 15.7129C63.6885 15.3562 63.4712 15.0542 63.2397 14.8146L63.0923 14.6582L63.2474 14.5094C63.4713 14.2735 63.7 13.9938 63.9207 13.6696L68.2234 7.27317H63.0001L59.7672 12.2766C59.5842 12.5449 59.2147 12.6803 58.6616 12.6803H57.9248V3.22082C57.9248 1.32879 56.7461 1.0713 55.4727 1.0713H53.2927L53.2964 23.3999H57.9248V16.7021H58.3584C58.8859 16.7021 59.2453 16.7632 59.41 17.0499L61.9632 21.869C62.6764 23.1767 63.3872 23.3999 64.7243 23.3999H68.2712L65.6296 19.0303L63.878 15.7129Z" fill="white"/>
<path d="M86.3471 6.9081C83.9928 6.9081 82.4907 7.95392 81.6489 8.83827L81.3679 9.12246L81.2687 8.73593C81.0214 7.78863 80.1879 7.2673 78.9336 7.2673H76.8593L76.8722 23.394H81.4691V15.9613C81.4691 15.2347 81.5636 14.604 81.7557 14.0286C82.2675 12.2873 83.6948 11.2046 85.4787 11.2046C86.9137 11.2046 87.4744 11.9618 87.4744 13.9186V20.9425C87.4744 22.6127 88.2468 23.394 89.9182 23.394H92.1058L92.0984 13.1373C92.0984 9.06206 90.1109 6.9081 86.3484 6.9081" fill="white"/>
<path d="M71.7926 7.27417H69.6138L69.6287 19.7434H69.6272V23.3977H71.9529C71.9821 23.3977 72.0056 23.4009 72.0349 23.4009L73.1182 23.3977H74.1964V23.3914H74.204L74.2133 9.7225C74.2133 8.07333 73.4248 7.27418 71.7942 7.27418" fill="white"/>
<path d="M43.1986 19.7412C40.8941 19.7412 39.2894 17.9108 39.2894 15.2953C39.2894 12.6804 40.8941 10.8513 43.1986 10.8513C45.5116 10.8513 47.1353 12.6804 47.1353 15.2953C47.1353 17.9521 45.5504 19.7412 43.1986 19.7412ZM43.1986 6.9439C38.3179 6.9439 34.7787 10.4571 34.7787 15.2953C34.7787 20.1334 38.3179 23.646 43.1986 23.646C48.0876 23.646 51.6467 20.1334 51.6467 15.2953C51.6467 10.4571 48.0876 6.9439 43.1986 6.9439Z" fill="white"/>
<path d="M141.733 19.7407C139.429 19.7407 137.824 17.9103 137.824 15.2948C137.824 12.6799 139.429 10.8508 141.733 10.8508C144.046 10.8508 145.671 12.6799 145.671 15.2948C145.671 17.9516 144.085 19.7407 141.733 19.7407ZM141.733 6.94341C136.853 6.94341 133.314 10.4566 133.314 15.2948C133.314 20.1329 136.853 23.6455 141.733 23.6455C146.623 23.6455 150.181 20.1329 150.181 15.2948C150.181 10.4566 146.623 6.94341 141.733 6.94341Z" fill="white"/>
<path d="M101.791 19.0314C99.2778 19.0314 98.3832 16.8387 98.3832 14.7839C98.3832 13.8786 98.6122 10.928 101.549 10.928C103.009 10.928 104.955 11.3463 104.955 14.9359C104.955 18.3213 103.233 19.0314 101.791 19.0314ZM107.341 7.23105C106.469 7.23105 105.798 7.57881 105.461 8.21395L105.334 8.46061L105.121 8.27561C104.379 7.63348 103.049 6.87185 100.888 6.87185C96.5898 6.87185 93.6959 10.1002 93.6959 14.9047C93.6959 19.7034 96.6903 23.0571 100.975 23.0571C102.438 23.0571 103.595 22.7157 104.511 22.0214L104.866 21.755V22.2032C104.866 24.3572 103.473 25.5454 100.948 25.5454C99.721 25.5454 98.604 25.2466 97.8571 24.9758C96.8817 24.6814 96.3101 24.9249 95.9147 25.9034L95.5498 26.8062L95.0335 28.1247L95.3534 28.2951C96.9695 29.1528 99.0732 29.6646 100.975 29.6646C104.89 29.6646 109.461 27.6606 109.461 22.0214L109.478 7.23105H107.342" fill="white"/>
<path d="M8.02258 19.5561L4.28057 19.5524V15.0785C4.28057 14.1224 4.65125 13.6252 5.47066 13.5108H8.02258C9.84401 13.5108 11.0209 14.6596 11.0222 16.5179C11.0209 18.4252 9.87327 19.5549 8.02258 19.5562V19.5561ZM4.28057 7.48744V6.31001C4.28057 5.27945 4.71664 4.78928 5.67357 4.72633H7.58831C9.23047 4.72633 10.214 5.70922 10.214 7.3533C10.214 8.60703 9.54077 10.0699 7.64871 10.0699H4.28057V7.48744ZM12.8017 11.9524L12.1251 11.5722L12.7157 11.0674C13.4024 10.4768 14.5538 9.14934 14.5538 6.85551C14.5538 3.34609 11.8315 1.08087 7.61822 1.08087H2.81V1.0796H2.26256C1.01342 1.12539 0.0139766 2.14132 0 3.39823V23.3186H2.2066C2.21219 23.3198 2.21406 23.3186 2.21592 23.3198L7.7132 23.3186C12.3969 23.3186 15.4199 20.7691 15.4199 16.8204C15.4199 14.6944 14.4428 12.8768 12.8007 11.9524" fill="white"/>
<path d="M170.715 6.96035C168.808 6.96035 166.964 7.85358 165.781 9.35143L165.447 9.77358L165.186 9.30121C164.335 7.74869 162.869 6.96035 160.832 6.96035C158.695 6.96035 157.262 8.15239 156.596 8.86126L156.161 9.333L155.993 8.7125C155.75 7.81926 154.955 7.32717 153.75 7.32717H151.818L151.799 23.3916H156.189V16.3003C156.189 15.6792 156.266 15.0644 156.422 14.4216C156.841 12.7083 157.993 10.8652 159.929 11.0496C161.123 11.164 161.706 12.0865 161.706 13.8685V23.3916H166.127V16.3003C166.127 15.5241 166.199 14.943 166.374 14.36C166.73 12.7242 167.932 11.047 169.8 11.047C171.152 11.047 171.652 11.8125 171.652 13.8685V21.0431C171.652 22.6662 172.376 23.3916 173.997 23.3916H176.064L176.067 13.1361C176.067 9.03929 174.264 6.96035 170.714 6.96035" fill="white"/>
<path d="M130.772 17.8141C130.759 17.8299 128.87 19.8218 126.383 19.8218C124.117 19.8218 121.828 18.4314 121.828 15.3276C121.828 12.6479 123.603 10.7749 126.143 10.7749C126.969 10.7749 127.907 11.0706 128.054 11.5677L128.075 11.6517C128.414 12.7789 129.438 12.8393 129.64 12.8393L132.045 12.8419V10.7394C132.045 7.96624 128.517 6.96046 126.143 6.96046C121.068 6.96046 117.384 10.4947 117.384 15.3614C117.384 20.2263 121.027 23.7554 126.051 23.7554C130.409 23.7554 132.779 20.8906 132.801 20.862L132.928 20.7069L131.023 17.5472L130.772 17.8142" fill="white"/>
</g>
</svg>
