<svg width="176" height="60" viewBox="0 0 176 60" fill="none" xmlns="http://www.w3.org/2000/svg">
<g opacity="0.3" clip-path="url(#clip0)">
<path d="M166.261 8.90501C157.356 8.90501 154.288 12.6649 147.461 12.6649C140.634 12.6649 137.567 8.90501 128.662 8.90501C125.357 8.90501 122.804 10.3496 121.28 12.8628C120.984 12.6649 120.667 12.467 120.35 12.2691C115.997 9.39974 110.951 2.37467 106.498 2.37467C102.046 2.37467 96.9994 9.39974 92.6458 12.2691C89.8556 13.9908 87.5402 15.9499 85.6801 18.0079C85.7988 14.7427 89.7368 12.1702 89.1234 11.3786C88.3912 10.4485 83.2658 14.9406 79.3872 12.0119C75.5877 9.08311 79.1893 3.58179 78.1207 3.06728C77.0521 2.55277 74.4796 8.60818 69.6511 7.57916C64.8226 6.49077 65.535 0 64.3476 0C63.1603 0 63.8727 6.49077 59.0442 7.59894C54.2157 8.62797 51.6432 2.57256 50.5745 3.08707C49.5059 3.60158 53.1075 9.1029 49.3081 12.0317C45.4294 14.9604 40.3041 10.4683 39.5719 11.3984C38.8397 12.3285 44.6379 15.8311 42.5798 20.0264C42.4809 20.2045 42.3819 20.3826 42.283 20.5409C36.841 11.4776 27.1445 4.55145 23.3846 4.55145C18.0416 4.55145 0.627319 18.6016 0.627319 32.8496C0.627319 45.1979 10.8186 55.2111 23.3846 55.2111C29.717 55.2111 35.436 52.6781 39.5521 48.5818C39.5521 48.5818 39.5521 48.6016 39.5719 48.6016C40.3041 49.5317 45.4294 45.0396 49.3081 47.9683C53.1075 50.8971 49.5059 56.3984 50.5745 56.9129C51.6432 57.4274 54.2157 51.372 59.0442 52.4011C63.8727 53.5092 63.1603 60 64.3476 60C65.535 60 64.8226 53.5092 69.6511 52.4011C74.4796 51.372 77.0521 57.4274 78.1207 56.9129C79.1893 56.3984 75.5877 50.8971 79.3872 47.9683C81.1088 46.6623 83.0877 46.8206 84.8094 47.3351C89.8753 51.8865 97.7118 54.8153 106.498 54.8153C116.986 54.8153 126.109 50.6596 130.799 44.5251C135.489 49.8483 141.287 53.628 147.461 53.628C162.402 53.628 175.166 31.4644 175.166 18.9974C175.166 12.8628 171.703 8.90501 166.261 8.90501ZM31.6366 42.4076C31.1814 42.9024 30.5482 43.1398 29.9149 43.1398C29.3213 43.1398 28.7276 42.9222 28.2724 42.4868L19.2289 33.8193V40.5673C19.2289 41.8734 18.1603 42.942 16.8542 42.942C15.5482 42.942 14.4796 41.8734 14.4796 40.5673V21.5699C14.4796 20.2639 15.5482 19.1952 16.8542 19.1952C18.1603 19.1952 19.2289 20.2639 19.2289 21.5699V27.9815L27.9162 20.0264C28.8859 19.1359 30.3899 19.215 31.2804 20.1649C32.1709 21.1346 32.0917 22.6385 31.1418 23.529L23.0877 30.9301L31.5772 39.0633C32.5073 39.9538 32.5271 41.4578 31.6366 42.4076ZM73.3318 23.252L66.7223 31.504V40.7652C66.7223 42.0712 65.6537 43.1398 64.3476 43.1398C63.0416 43.1398 61.973 42.0712 61.973 40.7652V31.504L55.3635 23.252C54.5521 22.223 54.7104 20.7388 55.7395 19.9077C56.7685 19.0963 58.2526 19.2546 59.0838 20.2836L64.3476 26.8734L69.6115 20.2836C70.4228 19.2546 71.9268 19.0963 72.9558 19.9077C73.9848 20.7388 74.1432 22.223 73.3318 23.252ZM108.675 40.7652C108.675 42.0712 107.606 43.1398 106.3 43.1398C104.994 43.1398 103.925 42.0712 103.925 40.7652V21.7678C103.925 20.4617 104.994 19.3931 106.3 19.3931C107.606 19.3931 108.675 20.4617 108.675 21.7678V40.7652ZM156.801 22.5989L149.677 41.5765C149.677 41.5963 149.658 41.6161 149.658 41.6359C149.539 41.9327 149.361 42.2098 149.143 42.4274C148.925 42.6451 148.648 42.8232 148.352 42.9617C148.253 43.0013 148.134 43.0409 148.035 43.0607C147.857 43.1003 147.659 43.1201 147.481 43.1201C147.303 43.1201 147.125 43.1003 146.927 43.0607C146.808 43.0211 146.67 42.9815 146.551 42.942C146.254 42.8232 146.016 42.6451 145.799 42.4472C145.561 42.2295 145.383 41.9525 145.265 41.6359C145.265 41.6161 145.245 41.5963 145.245 41.5765L138.121 22.5989C137.666 21.372 138.279 20.0066 139.506 19.5515C140.733 19.0963 142.098 19.7098 142.573 20.9367L147.481 33.9974L152.389 20.9367C152.844 19.7098 154.209 19.0963 155.456 19.5515C156.643 20.0066 157.276 21.372 156.801 22.5989Z" fill="white"/>
</g>
<defs>
<clipPath id="clip0">
<rect width="174.538" height="60" fill="white" transform="translate(0.627319)"/>
</clipPath>
</defs>
</svg>
