<svg width="187" height="34" viewBox="0 0 187 34" fill="none" xmlns="http://www.w3.org/2000/svg">
<g opacity="0.3">
<path fill-rule="evenodd" clip-rule="evenodd" d="M10.6445 6.89771C8.80098 6.89771 7.1041 7.70736 5.74562 9.04525V7.68413H0V31.8818V33.3639V33.5454H5.71538V33.3639H5.74561V25.5602C7.10408 26.8981 8.80098 27.7077 10.6445 27.7077C15.1069 27.7077 18.7186 23.0532 18.7186 17.3027C18.7186 11.5522 15.1069 6.89771 10.6445 6.89771H10.6445ZM9.22324 11.4953C10.0516 11.4953 10.7947 11.8991 11.4308 12.5237C11.607 12.6943 11.7904 12.8902 11.9449 13.0984C11.9669 13.1287 11.9838 13.1581 12.0054 13.1891C12.0137 13.2009 12.0273 13.2075 12.0356 13.2194C12.2057 13.4681 12.3529 13.7157 12.4892 14.0058C12.4992 14.0265 12.5096 14.0453 12.5194 14.0663C12.545 14.1222 12.5556 14.1905 12.5799 14.2478C12.6868 14.5004 12.8034 14.7577 12.8823 15.0342C12.975 15.3587 13.044 15.7113 13.094 16.0626C13.0953 16.0727 13.0927 16.0826 13.094 16.0928C13.1442 16.455 13.1847 16.8287 13.1847 17.212C13.1847 17.2223 13.1847 17.2319 13.1847 17.2422C13.1834 17.6251 13.1454 17.9999 13.094 18.3614C13.0927 18.3711 13.0953 18.3819 13.094 18.3916C13.0413 18.7519 12.9799 19.0883 12.8823 19.42C12.8798 19.4294 12.8849 19.4409 12.8823 19.4503C12.2815 21.5009 10.8659 22.959 9.22326 22.959C8.9389 22.959 8.67342 22.8909 8.40678 22.8077C8.15107 22.728 7.91536 22.623 7.68101 22.475C7.67462 22.4713 7.65711 22.4787 7.65079 22.475C7.41994 22.3266 7.19051 22.1375 6.98551 21.9306C6.7788 21.7219 6.58648 21.4952 6.41094 21.2349C6.27311 21.0305 6.13373 20.8013 6.01782 20.5695C6.0037 20.5412 6.0014 20.5074 5.9876 20.4787C5.9345 20.3707 5.88429 20.2593 5.8364 20.146C5.80637 20.0734 5.77353 20.0088 5.74568 19.9342V19.904C5.44044 19.0961 5.26183 18.1961 5.26183 17.212C5.26183 14.063 7.03314 11.4953 9.22329 11.4953L9.22324 11.4953Z" fill="white"/>
<path d="M20.3525 7.62231V25.0144V26.799V27.0107H26.1283V26.799H26.1585V14.8514C26.9305 13.6901 28.8837 12.7598 31.4203 12.5224C31.5311 12.512 31.6429 12.5289 31.753 12.5224V7.62231H30.7853C30.5214 7.66092 30.2494 7.71228 29.9688 7.77355C29.6257 7.8485 29.2914 7.94228 28.9709 8.04578C28.9503 8.05246 28.9309 8.0693 28.9104 8.07604L27.4891 8.80196L27.096 9.0137L26.1585 9.49765V7.62231H20.3524H20.3525Z" fill="white"/>
<path d="M33.6216 7.82495H39.3986V27.0125H33.6216V7.82495Z" fill="white"/>
<path d="M50.9235 7.0791C45.4644 7.0791 41.0652 11.6596 41.0652 17.3329C41.0652 23.0062 45.4644 27.6169 50.9235 27.6169C53.4179 27.6169 55.6849 26.6327 57.4251 25.0459L54.6732 21.0533C53.8535 22.3838 52.6235 23.2613 51.2259 23.2613C48.748 23.2613 46.7201 20.5943 46.7201 17.3026C46.7201 14.0109 48.748 11.3439 51.2259 11.3439C52.6687 11.3439 53.9464 12.2676 54.764 13.673L57.2134 9.40812C55.5039 7.94672 53.3118 7.0791 50.9235 7.0791Z" fill="white"/>
<path d="M107.444 7.44216C105.553 7.44216 103.826 8.09036 102.605 9.10575V7.83536H96.8295V27.0121H102.605V14.157C103.176 12.9746 104.26 12.1607 105.508 12.1607C106.735 12.1607 107.795 12.9473 108.381 14.0965V16.8793V17.9984V18.2101V21.7491V27.2238H114.157V13.9755C114.163 13.6882 114.164 13.3917 114.157 13.0984C114.162 13.0266 114.157 12.96 114.157 12.8866C114.157 12.7097 114.147 12.5451 114.127 12.3724C114.124 12.3526 114.129 12.3317 114.127 12.3119C113.767 9.58782 110.912 7.44214 107.444 7.44214L107.444 7.44216Z" fill="white"/>
<path d="M66.9781 6.74683C63.1381 6.74683 59.8327 9.05568 58.2084 12.4234C58.1826 12.4953 58.1426 12.5615 58.1177 12.6336C57.5361 14.322 57.2728 16.0867 57.271 17.8296C57.2783 18.0097 57.2875 18.1889 57.3012 18.3702C57.3879 19.5143 57.5965 20.6221 57.906 21.7041C57.9543 21.826 58.0037 21.9425 58.0572 22.0645C58.7016 23.5336 59.6555 24.8252 60.8696 25.8789C60.8982 25.8993 60.9313 25.9188 60.9603 25.9389C62.5906 27.0756 64.6473 27.7711 66.8873 27.7711C71.2771 27.7711 75.0041 25.1628 76.1711 21.614L72.2399 19.962C71.3726 21.9487 69.678 23.2959 67.7038 23.2959C65.5238 23.2959 63.7047 21.6304 62.9561 19.3013C62.93 19.2199 62.8889 19.144 62.8654 19.061V18.9409C62.8145 18.7428 62.7491 18.5461 62.7142 18.3402C62.7129 18.3305 62.7155 18.3199 62.7142 18.3102H62.8654H63.0468H72.391H76.7154C76.738 16.9975 76.6579 15.6427 76.413 14.2855C76.3906 14.2051 76.3721 14.1244 76.3525 14.0453C75.111 9.82153 71.4088 6.74685 66.978 6.74685L66.9781 6.74683ZM66.6757 10.9517C66.8163 10.935 66.9849 10.9517 67.1293 10.9517C69.1734 10.9517 70.822 12.6543 71.1815 14.9162H63.0166C63.3581 12.8084 64.8245 11.1714 66.6757 10.9517Z" fill="white"/>
<path d="M78.6296 0H84.4067V27.013H78.6296V0Z" fill="white"/>
<path d="M87.8252 7.82495H93.6023V27.0125H87.8252V7.82495Z" fill="white"/>
<path d="M125.273 6.74634C121.433 6.74634 118.127 9.05517 116.503 12.4228C116.477 12.4947 116.437 12.5609 116.412 12.633C115.831 14.3214 115.567 16.0861 115.566 17.829C115.573 18.009 115.582 18.1883 115.596 18.3696C115.682 19.5137 115.891 20.6214 116.201 21.7034C116.249 21.8253 116.298 21.9418 116.352 22.0638C116.996 23.5328 117.95 24.8245 119.164 25.8781C119.193 25.8986 119.226 25.918 119.255 25.9382C120.885 27.0748 122.942 27.7703 125.182 27.7703C129.572 27.7703 133.299 25.162 134.466 21.6133L130.534 19.9614C129.667 21.948 127.972 23.2952 125.998 23.2952C123.818 23.2952 121.999 21.6298 121.251 19.3006C121.224 19.2193 121.183 19.1433 121.16 19.0604V18.9402C121.109 18.7422 121.044 18.5454 121.009 18.3395C121.007 18.3298 121.011 18.3193 121.009 18.3095H121.16H121.341H130.686H135.01C135.033 16.9969 134.952 15.6421 134.708 14.285C134.685 14.2045 134.667 14.1238 134.647 14.0447C133.406 9.82101 129.703 6.74638 125.273 6.74638L125.273 6.74634ZM124.97 10.9511C125.111 10.9344 125.279 10.9511 125.424 10.9511C127.468 10.9511 129.117 12.6537 129.476 14.9156H121.311C121.653 12.8079 123.119 11.1709 124.97 10.9511Z" fill="white"/>
<path d="M140.193 25.3425C140.193 26.5606 139.206 27.5481 137.988 27.5481C136.77 27.5481 135.783 26.5606 135.783 25.3425C135.783 24.1244 136.77 23.137 137.988 23.137C139.206 23.137 140.193 24.1244 140.193 25.3425Z" fill="white"/>
<path d="M146.958 16.3521C143.812 16.3521 141.278 18.8712 141.278 21.9915C141.278 25.1117 143.812 27.6475 146.958 27.6475C148.395 27.6475 149.701 27.1063 150.704 26.2335L149.118 24.0376C148.646 24.7694 147.937 25.252 147.132 25.252C145.704 25.252 144.536 23.7852 144.536 21.9748C144.536 20.1645 145.704 18.6976 147.132 18.6976C147.963 18.6976 148.7 19.2056 149.171 19.9786L150.582 17.633C149.597 16.8292 148.334 16.3521 146.958 16.3521Z" fill="white"/>
<path d="M156.796 16.1274C153.568 16.1274 150.929 18.6846 150.929 21.8718C150.929 25.0591 153.568 27.6455 156.796 27.6455C160.024 27.6455 162.632 25.0591 162.632 21.8718C162.632 18.6846 160.024 16.1274 156.796 16.1274ZM156.735 18.7066C158.144 18.7066 159.306 20.1293 159.306 21.8718C159.306 23.6144 158.144 25.0371 156.735 25.0371C155.327 25.0371 154.195 23.6144 154.195 21.8718C154.195 20.1293 155.327 18.7066 156.735 18.7066Z" fill="white"/>
<path d="M169.89 16.3345C168.849 16.3345 167.905 16.6881 167.229 17.2419V16.9092H163.932V27.1025H167.229V19.7222C167.457 19.1017 167.946 18.6635 168.529 18.6635C169.115 18.6635 169.61 19.096 169.829 19.7222C169.832 19.7313 169.826 19.7432 169.829 19.7524V27.1025H173.125V21.2043V19.7222V19.6617C173.364 19.0758 173.833 18.6635 174.395 18.6635C174.97 18.6635 175.471 19.0851 175.696 19.6919V27.0722H178.992V19.1475V17.9376V17.9073C178.373 16.9741 177.172 16.3345 175.756 16.3345C174.548 16.3345 173.473 16.7973 172.793 17.5141C172.125 16.8024 171.093 16.3345 169.89 16.3345Z" fill="white"/>
<path d="M39.2986 3.2725C39.2986 4.86817 38.0053 6.1617 36.41 6.1617C34.8147 6.1617 33.5215 4.86817 33.5215 3.2725C33.5215 1.67684 34.8147 0.383301 36.41 0.383301C38.0053 0.383301 39.2986 1.67684 39.2986 3.2725Z" fill="white"/>
<path d="M93.505 3.2725C93.505 4.86817 92.2117 6.1617 90.6164 6.1617C89.0211 6.1617 87.7279 4.86817 87.7279 3.2725C87.7279 1.67684 89.0211 0.383301 90.6164 0.383301C92.2117 0.383301 93.505 1.67684 93.505 3.2725Z" fill="white"/>
<path d="M182.575 3.60596C183.326 3.60596 184.014 3.79036 184.639 4.15917C185.264 4.52799 185.759 5.02852 186.122 5.66079C186.485 6.29305 186.666 6.98202 186.666 7.72776C186.666 8.4654 186.485 9.15236 186.122 9.78867C185.759 10.425 185.262 10.9316 184.633 11.3085C184.004 11.6854 183.31 11.8739 182.551 11.8739C181.801 11.8739 181.113 11.6875 180.488 11.3146C179.862 10.9417 179.37 10.4392 179.011 9.80692C178.652 9.17467 178.472 8.48973 178.472 7.75209C178.472 7.01446 178.654 6.3275 179.017 5.69118C179.38 5.05487 179.874 4.54825 180.5 4.17133C181.125 3.7944 181.817 3.60596 182.575 3.60596ZM182.551 10.8647C183.132 10.8647 183.661 10.7229 184.137 10.4392C184.613 10.1555 184.99 9.77449 185.268 9.29624C185.547 8.81799 185.686 8.29517 185.686 7.72776C185.686 7.16035 185.549 6.63956 185.274 6.16537C185 5.69118 184.625 5.31426 184.149 5.03461C183.673 4.75495 183.148 4.61513 182.575 4.61513C181.994 4.61513 181.468 4.75698 180.996 5.04069C180.524 5.32439 180.151 5.70536 179.876 6.18361C179.602 6.66186 179.465 7.18468 179.465 7.75209C179.465 8.31951 179.6 8.84029 179.87 9.31448C180.141 9.78868 180.512 10.1656 180.984 10.4452C181.456 10.7249 181.978 10.8647 182.551 10.8647ZM184.294 7.02257C184.294 7.31438 184.235 7.56768 184.119 7.78249C184.002 7.99729 183.83 8.15738 183.604 8.26276L184.415 9.52726H183.289L182.721 8.4573H181.994V9.52726H181.014V5.67295H182.684C183.201 5.67295 183.598 5.79047 183.876 6.02554C184.155 6.26061 184.294 6.59296 184.294 7.02257ZM181.994 7.67913H182.684C182.894 7.67913 183.057 7.62446 183.174 7.515C183.291 7.40557 183.35 7.25359 183.35 7.05904C183.35 6.8564 183.291 6.70441 183.174 6.60309C183.057 6.50177 182.894 6.4511 182.684 6.4511H181.994V7.67913Z" fill="white"/>
</g>
</svg>
