<svg width="50" height="50" viewBox="0 0 50 50" fill="none" xmlns="http://www.w3.org/2000/svg">
<path d="M25.0001 50H19.6429C8.81075 50 0 41.1857 0 30.3571V26.7857C0 25.8 0.800003 25 1.78572 25H7.14288C17.9751 25 26.7858 33.8143 26.7858 44.6429V48.2143C26.7858 49.2 25.9858 50 25.0001 50ZM3.57144 28.5714V30.3571C3.57144 39.2179 10.7822 46.4286 19.6429 46.4286H23.2144V44.6429C23.2144 35.7821 16.0036 28.5714 7.14288 28.5714H3.57144Z" fill="#F7CD46"/>
<path d="M30.357 50H24.9998C24.0141 50 23.2141 49.2 23.2141 48.2143V44.6429C23.2141 33.8143 32.0284 25 42.857 25H48.2142C49.1999 25 49.9999 25.8 49.9999 26.7857V30.3571C49.9999 41.1857 41.1856 50 30.357 50ZM26.7856 46.4286H30.357C39.2177 46.4286 46.4285 39.2179 46.4285 30.3571V28.5714H42.857C33.9963 28.5714 26.7856 35.7821 26.7856 44.6429V46.4286Z" fill="#F7CD46"/>
<path d="M17.9281 32.2143C17.1674 32.2143 16.4602 31.7214 16.221 30.9571C12.8745 20.1679 15.7531 8.50357 23.7353 0.521429C24.071 0.189286 24.5246 0 24.9996 0C25.4746 0 25.9281 0.189286 26.2639 0.521429C31.9889 6.25 35.1425 13.8786 35.1425 22C35.1425 25.0321 34.6817 28.0429 33.7782 30.9571C33.4889 31.8964 32.496 32.4321 31.5424 32.1321C30.5996 31.8393 30.0746 30.8393 30.3674 29.8964C31.1674 27.3286 31.571 24.6714 31.571 22C31.571 15.4536 29.2496 9.27143 24.9996 4.4C18.9245 11.3679 16.8638 20.9714 19.6353 29.8964C19.9281 30.8393 19.4031 31.8393 18.4567 32.1321C18.2817 32.1893 18.1031 32.2143 17.9281 32.2143Z" fill="#F7CD46"/>
</svg>
