<svg width="54" height="50" viewBox="0 0 54 50" fill="none" xmlns="http://www.w3.org/2000/svg">
<path d="M22.0661 38.0742C18.8135 38.0742 16.1987 40.7528 16.1987 44.0053C16.1987 47.3216 18.8135 50.0002 22.0661 50.0002C25.3186 50.0002 27.9334 47.3216 27.9334 44.0053C27.9334 40.689 25.3186 38.0742 22.0661 38.0742ZM22.0661 46.1737C20.9181 46.1737 20.0253 45.2171 20.0253 44.0053C20.0253 42.8574 20.9181 41.9007 22.0661 41.9007C23.214 41.9007 24.1069 42.8574 24.1069 44.0053C24.1069 45.1533 23.214 46.1737 22.0661 46.1737Z" fill="#F7CD46"/>
<path d="M45.4718 38.0742C42.2193 38.0742 39.6045 40.7528 39.6045 44.0053C39.6045 47.3216 42.2193 50.0002 45.4718 50.0002C48.7244 50.0002 51.3392 47.3216 51.3392 44.0053C51.2754 40.689 48.6606 38.0742 45.4718 38.0742ZM45.4718 46.1737C44.3239 46.1737 43.431 45.2171 43.431 44.0053C43.431 42.8574 44.3239 41.9007 45.4718 41.9007C46.6198 41.9007 47.5126 42.8574 47.5126 44.0053C47.4489 45.1533 46.556 46.1737 45.4718 46.1737Z" fill="#F7CD46"/>
<path d="M53.5075 7.46171C53.1249 6.95151 52.5509 6.69641 51.9769 6.69641H14.1581L13.329 4.01785C12.5637 1.59438 10.3954 0 7.84437 0H1.91326C0.82908 0 0 0.829079 0 1.91326C0 2.99744 0.82908 3.82652 1.91326 3.82652H7.84437C8.67345 3.82652 9.43875 4.33672 9.69385 5.1658L16.6454 27.1045L16.5816 27.2958C15.7525 29.2729 15.9438 31.505 17.0918 33.3545C18.3035 35.1402 20.2806 36.2244 22.4489 36.2244H48.5968C49.681 36.2244 50.5101 35.3953 50.5101 34.3111C50.5101 33.227 49.681 32.3979 48.5968 32.3979H22.4489C21.5561 32.3979 20.7908 31.9514 20.3443 31.2499C19.8979 30.5484 19.7704 29.6555 20.0892 28.8902H42.4744C45.5356 28.8902 48.2142 26.9132 49.1708 23.9795L53.8264 9.18365C53.9539 8.60967 53.8264 7.97192 53.5075 7.46171ZM42.4106 25.0637H19.9617L15.3699 10.5229H49.3621L45.5356 22.8316C45.0254 24.1709 43.8137 25.0637 42.4106 25.0637Z" fill="#F7CD46"/>
</svg>
