<svg width="54" height="50" viewBox="0 0 54 50" fill="none" xmlns="http://www.w3.org/2000/svg">
<path d="M26.5695 50L25.298 48.8537C11.459 36.3774 0 25.2448 0 15.3875C0 6.76004 6.7942 0 15.4672 0C19.5248 0 23.5444 1.57899 26.5695 4.29667C29.5946 1.57899 33.6142 0 37.6717 0C46.3448 0 53.139 6.76004 53.139 15.3875C53.139 25.241 41.6799 36.3736 27.841 48.8537L26.5695 50ZM15.4672 3.79564C8.92355 3.79564 3.79564 8.88939 3.79564 15.3875C3.79564 23.3963 14.4196 33.8837 26.5695 44.8873C38.7193 33.8799 49.3433 23.3925 49.3433 15.3875C49.3433 8.88939 44.2154 3.79564 37.6717 3.79564C34.0203 3.79564 30.4107 5.45813 28.008 8.24034L26.5695 9.90283L25.1347 8.24034C22.7321 5.45813 19.1186 3.79564 15.4672 3.79564Z" fill="#F7CD46"/>
<path d="M18.9776 30.3646C18.3817 30.3646 17.8199 30.0875 17.4593 29.6055L12.3352 22.7733H3.11181C2.06421 22.7733 1.21399 21.9231 1.21399 20.8755C1.21399 19.8279 2.06042 18.9777 3.11181 18.9777H13.2841C13.88 18.9777 14.4456 19.2585 14.8024 19.7368L18.6626 24.8799L24.9519 12.4264C25.2708 11.7887 25.9274 11.3864 26.6448 11.3864C27.3394 11.2535 28.0264 11.7963 28.3452 12.4416L34.1678 24.2081L36.2592 20.0253C36.5818 19.3838 37.2384 18.9777 37.9558 18.9777H50.026C51.0736 18.9777 51.9238 19.8279 51.9238 20.8755C51.9238 21.9231 51.0736 22.7733 50.026 22.7733H39.1287L35.8606 29.317C35.5342 29.9585 34.8775 30.3646 34.1602 30.3646H34.1564C33.439 30.3646 32.7786 29.9547 32.4597 29.3094L26.6296 17.5277L20.6705 29.3246C20.3744 29.9091 19.7975 30.2963 19.1446 30.357C19.0877 30.3608 19.0345 30.3646 18.9776 30.3646Z" fill="#F7CD46"/>
</svg>
