<svg width="55" height="62" viewBox="0 0 55 62" fill="none" xmlns="http://www.w3.org/2000/svg">
<path d="M53.7324 60.9505H0.299561V53.4512H53.7324V60.9505ZM2.1744 59.0757H51.8575V55.326H2.1744V59.0757Z" fill="#F7CD46"/>
<path fill-rule="evenodd" clip-rule="evenodd" d="M0 53.1519H54.0318V61.2502H0V53.1519ZM0.59901 53.7509V60.6512H53.4328V53.7509H0.59901ZM1.87483 55.0267H52.157V59.3754H1.87483V55.0267ZM2.47384 55.6257V58.7764H51.558V55.6257H2.47384Z" fill="#F7CD46"/>
<path d="M54.2006 24.391H0.767822V17.3604L23.6408 2.08048C24.672 1.42428 25.9844 1.04932 27.4842 1.04932C28.9841 1.04932 30.2965 1.42428 31.2339 2.08048L54.2006 17.3604V24.391ZM2.64266 22.5162H52.3258V18.2978L30.2027 3.58034C29.5465 3.11163 28.5154 2.92415 27.4842 2.92415C26.4531 2.92415 25.4219 3.20538 24.672 3.58034L2.64266 18.2978V22.5162Z" fill="#F7CD46"/>
<path fill-rule="evenodd" clip-rule="evenodd" d="M23.8046 2.33156L1.06752 17.5207V24.0917H53.9013V17.521L31.0623 2.3261C30.1864 1.71296 28.938 1.34901 27.4844 1.34901C26.0356 1.34901 24.7815 1.71075 23.8046 2.33156ZM23.4802 1.82798C24.5652 1.1375 25.9349 0.75 27.4844 0.75C29.029 0.75 30.4042 1.1353 31.4029 1.83324L54.5003 17.2001V24.6907H0.468506V17.2005L23.4802 1.82798ZM24.5382 3.31265C25.327 2.91827 26.4038 2.62484 27.4844 2.62484C28.5336 2.62484 29.6397 2.81249 30.3728 3.33383L52.6255 18.1375V22.8159H2.34334V18.1379L24.5214 3.32105L24.5382 3.31265ZM24.8227 3.84017L2.94235 18.4581V22.2169H52.0265V18.4585L30.0287 3.82438C29.4494 3.41058 28.4955 3.22385 27.4844 3.22385C26.5103 3.22385 25.5325 3.48871 24.8227 3.84017Z" fill="#F7CD46"/>
<path d="M17.1731 55.3256H4.98669V48.7637H17.1731V55.3256ZM6.86153 53.4508H15.2983V50.6385H6.86153V53.4508Z" fill="#F7CD46"/>
<path fill-rule="evenodd" clip-rule="evenodd" d="M4.68738 48.4644H17.4728V55.6253H4.68738V48.4644ZM5.28639 49.0634V55.0263H16.8738V49.0634H5.28639ZM6.56221 50.3392H15.598V53.7505H6.56221V50.3392ZM7.16122 50.9382V53.1514H14.999V50.9382H7.16122Z" fill="#F7CD46"/>
<path d="M17.1731 29.078H4.98669V22.5161H17.1731V29.078ZM6.86153 27.2032H15.2983V24.3909H6.86153V27.2032Z" fill="#F7CD46"/>
<path fill-rule="evenodd" clip-rule="evenodd" d="M4.68738 22.2168H17.4728V29.3777H4.68738V22.2168ZM5.28639 22.8158V28.7787H16.8738V22.8158H5.28639ZM6.56221 24.0916H15.598V27.5029H6.56221V24.0916ZM7.16122 24.6906V26.9039H14.999V24.6906H7.16122Z" fill="#F7CD46"/>
<path d="M15.2987 50.639H6.86194V27.2036H15.2987V50.639ZM8.73677 48.7642H13.4239V29.0784H8.73677V48.7642Z" fill="#F7CD46"/>
<path fill-rule="evenodd" clip-rule="evenodd" d="M6.56226 26.9038H15.598V50.9383H6.56226V26.9038ZM7.16127 27.5028V50.3392H14.999V27.5028H7.16127ZM8.43709 28.7786H13.7232V49.0634H8.43709V28.7786ZM9.0361 29.3777V48.4644H13.1242V29.3777H9.0361Z" fill="#F7CD46"/>
<path d="M33.1092 55.3256H20.9227V48.7637H33.1092V55.3256ZM22.7976 53.4508H31.2343V50.6385H22.7976V53.4508Z" fill="#F7CD46"/>
<path fill-rule="evenodd" clip-rule="evenodd" d="M20.6232 48.4644H33.4086V55.6253H20.6232V48.4644ZM21.2222 49.0634V55.0263H32.8096V49.0634H21.2222ZM22.498 50.3392H31.5338V53.7505H22.498V50.3392ZM23.097 50.9382V53.1514H30.9348V50.9382H23.097Z" fill="#F7CD46"/>
<path d="M33.1092 29.078H20.9227V22.5161H33.1092V29.078ZM22.7976 27.2032H31.2343V24.3909H22.7976V27.2032Z" fill="#F7CD46"/>
<path fill-rule="evenodd" clip-rule="evenodd" d="M20.6232 22.2168H33.4086V29.3777H20.6232V22.2168ZM21.2222 22.8158V28.7787H32.8096V22.8158H21.2222ZM22.498 24.0916H31.5338V27.5029H22.498V24.0916ZM23.097 24.6906V26.9039H30.9348V24.6906H23.097Z" fill="#F7CD46"/>
<path d="M31.2341 50.639H22.7974V27.2036H31.2341V50.639ZM24.6722 48.7642H29.3593V29.0784H24.6722V48.7642Z" fill="#F7CD46"/>
<path fill-rule="evenodd" clip-rule="evenodd" d="M22.4979 26.9038H31.5337V50.9383H22.4979V26.9038ZM23.0969 27.5028V50.3392H30.9347V27.5028H23.0969ZM24.3728 28.7786H29.6589V49.0634H24.3728V28.7786ZM24.9718 29.3777V48.4644H29.0598V29.3777H24.9718Z" fill="#F7CD46"/>
<path d="M49.0453 55.3256H36.8589V48.7637H49.0453V55.3256ZM38.7337 53.4508H47.1705V50.6385H38.7337V53.4508Z" fill="#F7CD46"/>
<path fill-rule="evenodd" clip-rule="evenodd" d="M36.5594 48.4644H49.3449V55.6253H36.5594V48.4644ZM37.1585 49.0634V55.0263H48.7459V49.0634H37.1585ZM38.4343 50.3392H47.4701V53.7505H38.4343V50.3392ZM39.0333 50.9382V53.1514H46.871V50.9382H39.0333Z" fill="#F7CD46"/>
<path d="M49.0453 29.078H36.8589V22.5161H49.0453V29.078ZM38.7337 27.2032H47.1705V24.3909H38.7337V27.2032Z" fill="#F7CD46"/>
<path fill-rule="evenodd" clip-rule="evenodd" d="M36.5594 22.2168H49.3449V29.3777H36.5594V22.2168ZM37.1585 22.8158V28.7787H48.7459V22.8158H37.1585ZM38.4343 24.0916H47.4701V27.5029H38.4343V24.0916ZM39.0333 24.6906V26.9039H46.871V24.6906H39.0333Z" fill="#F7CD46"/>
<path d="M47.1704 50.639H38.7336V27.2036H47.1704V50.639ZM40.6085 48.7642H45.2956V29.0784H40.6085V48.7642Z" fill="#F7CD46"/>
<path fill-rule="evenodd" clip-rule="evenodd" d="M38.4343 26.9038H47.4701V50.9383H38.4343V26.9038ZM39.0333 27.5028V50.3392H46.8711V27.5028H39.0333ZM40.3092 28.7786H45.5953V49.0634H40.3092V28.7786ZM40.9082 29.3777V48.4644H44.9962V29.3777H40.9082Z" fill="#F7CD46"/>
<path d="M52.7954 16.8916H1.23743V18.7664H52.7954V16.8916Z" fill="#F7CD46"/>
<path fill-rule="evenodd" clip-rule="evenodd" d="M0.937744 16.5923H53.0947V19.0661H0.937744V16.5923ZM1.53675 17.1913V18.4671H52.4957V17.1913H1.53675Z" fill="#F7CD46"/>
</svg>
