<svg width="28" height="60" viewBox="0 0 28 60" fill="none" xmlns="http://www.w3.org/2000/svg">
<path fill-rule="evenodd" clip-rule="evenodd" d="M27.3529 53.8235C27.3529 50.4124 24.5876 47.6471 21.1765 47.6471C17.7653 47.6471 15 50.4124 15 53.8235C15 57.2347 17.7653 60 21.1765 60C24.5876 60 27.3529 57.2347 27.3529 53.8235ZM18.5294 53.8235C18.5294 52.3616 19.7145 51.1765 21.1765 51.1765C22.6384 51.1765 23.8235 52.3616 23.8235 53.8235C23.8235 55.2855 22.6384 56.4706 21.1765 56.4706C19.7145 56.4706 18.5294 55.2855 18.5294 53.8235ZM21.1765 4.62009C21.718 4.1354 22.0588 3.43103 22.0588 2.64706C22.0588 1.18513 20.8737 0 19.4118 0C17.9498 0 16.7647 1.18513 16.7647 2.64706C16.7647 3.43103 17.1055 4.1354 17.6471 4.62009V17.6471C17.6471 18.6217 18.4371 19.4118 19.4118 19.4118C20.3864 19.4118 21.1765 18.6217 21.1765 17.6471V4.62009Z" fill="#F7CD46"/>
<path fill-rule="evenodd" clip-rule="evenodd" d="M8.82616 54.7063C5.90195 54.7063 3.52941 52.3343 3.52941 49.4135V26.4696C3.52941 23.5492 5.90246 21.1769 8.81936 21.1769H21.1791C21.1785 21.1769 21.1765 48.6183 21.1765 48.6183C21.1765 49.5929 21.9666 50.383 22.9412 50.383C23.9158 50.383 24.7059 49.5929 24.7059 48.6183V21.1839C24.7059 19.228 23.1302 17.6475 21.1791 17.6475H8.81936C3.95347 17.6475 0 21.5997 0 26.4696V49.4135C0 54.2837 3.95289 58.2357 8.82616 58.2357H16.8236C17.7982 58.2357 18.5883 57.4456 18.5883 56.471C18.5883 55.4964 17.7982 54.7063 16.8236 54.7063H8.82616Z" fill="#F7CD46"/>
<path fill-rule="evenodd" clip-rule="evenodd" d="M8.823 54.7076C8.823 55.6822 9.61308 56.4723 10.5877 56.4723C11.5623 56.4723 12.3524 55.6822 12.3524 54.7076V21.1734C12.3524 20.1988 11.5623 19.4087 10.5877 19.4087C9.61308 19.4087 8.823 20.1988 8.823 21.1734V54.7076Z" fill="#F7CD46"/>
</svg>
