<svg width="94" height="16" viewBox="0 0 94 16" fill="none" xmlns="http://www.w3.org/2000/svg">
<path d="M35.7123 5.59477C36.2874 5.01961 36.6012 4.18301 36.6012 3.34641C36.6012 1.51634 35.0848 0 33.2547 0H27.5554H26.1959V1.2549H27.5554V15.634H34.3005C35.66 15.634 36.9672 15.1111 37.9083 14.1176C38.8495 13.1765 39.4247 11.8693 39.4247 10.5098C39.4247 9.15033 38.9018 7.89542 37.9083 6.90196C37.3332 6.3268 36.5489 5.85621 35.7123 5.59477ZM28.8626 1.2549H33.2547C34.4051 1.2549 35.3463 2.19608 35.3463 3.34641C35.3463 4.39216 34.5619 5.28105 33.5685 5.43791H28.8626V1.2549ZM34.3005 14.3791H28.8626V6.69281C33.4639 6.69281 33.5162 6.69281 33.6208 6.69281H34.3528C36.4966 6.69281 38.1698 8.4183 38.1698 10.5098C38.1698 12.6536 36.4443 14.3791 34.3005 14.3791Z" fill="black"/>
<path d="M50.8235 0L44.8104 15.634H46.2222L48.1045 10.719H54.9019L56.732 15.4771L56.7843 15.634H58.1961L52.183 0H50.8235ZM48.5751 9.41176L51.5032 1.77778L54.4313 9.41176H48.5751Z" fill="black"/>
<path d="M63.5817 1.2549H72.5751L63.634 14.4314L63.5817 14.4837V15.634H74.2483V14.3791H65.2549L74.196 1.15033L74.2483 1.09804V0H63.5817V1.2549Z" fill="black"/>
<path d="M91.6601 0H90.3529V10.0392C90.3529 12.6536 88.2091 14.7974 85.5947 14.7974C82.9804 14.7974 80.8889 12.6536 80.8889 10.0392V0H79.5817V10.0392C79.5817 11.6601 80.2091 13.1765 81.3594 14.2745C82.4575 15.4248 83.9738 16 85.5947 16C87.2157 16 88.732 15.3725 89.8823 14.2745C90.9804 13.1242 91.6601 11.6078 91.6601 10.0392V1.2549H93.0196V0H91.6601Z" fill="black"/>
<path d="M13.0196 0H2.56209C1.15033 0 0 1.15033 0 2.56209V13.0196C0 14.4314 1.15033 15.5817 2.56209 15.5817H13.0196C14.4314 15.5817 15.5817 14.4314 15.5817 13.0196V2.56209C15.5817 1.15033 14.4314 0 13.0196 0ZM14.2745 13.0196C14.2745 13.7516 13.6993 14.3268 12.9673 14.3268H2.5098C1.77778 14.3268 1.20261 13.7516 1.20261 13.0196V2.56209C1.20261 1.83007 1.77778 1.2549 2.5098 1.2549H12.9673C13.6993 1.2549 14.2745 1.83007 14.2745 2.56209V13.0196Z" fill="black"/>
<path d="M11.3463 4.13086H4.026V5.33347H11.3463V4.13086Z" fill="black"/>
<path d="M9.46391 7.16284H4.026V8.36546H9.46391C9.98679 8.36546 10.3528 8.78376 10.3528 9.25435C10.3528 9.77722 9.9345 10.1432 9.46391 10.1432H4.026V11.3458H9.46391C10.6142 11.3458 11.6077 10.4047 11.6077 9.20206C11.6077 8.15631 10.6665 7.16284 9.46391 7.16284Z" fill="black"/>
</svg>
