<svg width="41" height="44" viewBox="0 0 41 44" fill="none" xmlns="http://www.w3.org/2000/svg">
<path d="M39.4232 44H1.20428C0.870906 44 0.551982 43.8617 0.324592 43.618C0.0967201 43.3747 -0.0198657 43.0471 0.00277699 42.7147C0.662305 32.8998 9.58448 25.2114 20.3137 25.2114C31.043 25.2114 39.9652 32.8998 40.6247 42.7147C40.6473 43.0471 40.5307 43.3747 40.3029 43.618C40.0755 43.8617 39.7566 44 39.4232 44ZM2.54887 41.5912H38.0786C36.8453 33.6595 29.3005 27.6202 20.3137 27.6202C11.327 27.6202 3.78218 33.6595 2.54887 41.5912ZM20.3137 23.4453C15.3328 23.4453 11.2808 17.6463 11.2808 10.5187C11.2808 2.76289 15.9471 0 20.3137 0C24.6804 0 29.3467 2.76289 29.3467 10.5187C29.3467 17.6463 25.2946 23.4453 20.3137 23.4453ZM20.3137 2.40879C16.1041 2.40879 13.6895 5.36487 13.6895 10.5187C13.6895 16.2199 16.7232 21.0365 20.3137 21.0365C23.9043 21.0365 26.9379 16.2199 26.9379 10.5187C26.9379 5.36487 24.5233 2.40879 20.3137 2.40879Z" fill="#F7CD46"/>
</svg>
