<svg width="32" height="60" viewBox="0 0 32 60" fill="none" xmlns="http://www.w3.org/2000/svg">
<path d="M5.19256 60C4.88475 60 4.57636 59.8958 4.31371 59.6843C3.7391 59.2214 3.54539 58.3764 3.85319 57.6714L13.5978 35.3172L0.942127 29.8724C0.485175 29.6758 0.147066 29.2449 0.0377302 28.7215C-0.0721999 28.1974 0.0614991 27.6486 0.39426 27.2535L22.918 0.524034C23.416 -0.068363 24.2354 -0.171218 24.8433 0.280565C25.4512 0.732349 25.6669 1.60402 25.3496 2.32987L15.8623 24.0448L31.0915 31.0748C31.5562 31.2889 31.8895 31.7466 31.9775 32.2908C32.0648 32.8344 31.8949 33.3897 31.5259 33.7666L6.20451 59.5645C5.92107 59.8529 5.55741 60 5.19256 60ZM4.04988 27.7124L16.1689 32.9262C16.5528 33.0915 16.8564 33.4242 17.008 33.8441C17.1589 34.2646 17.144 34.7346 16.9664 35.1421L9.89697 51.3569L27.8197 33.0967L13.2727 26.3818C12.8984 26.2087 12.6048 25.876 12.461 25.46C12.3166 25.0434 12.3344 24.5805 12.5097 24.1795L18.4127 10.6677L4.04988 27.7124Z" fill="#F7CD46"/>
</svg>
