<svg width="40" height="60" viewBox="0 0 40 60" fill="none" xmlns="http://www.w3.org/2000/svg">
<path d="M33.6014 20.4096L39.7955 8.10017C40.0631 7.5686 40.0684 6.90911 39.8095 6.37066C39.5511 5.83358 39.0688 5.50143 38.5452 5.50143H25.4064V1.7192C25.4064 0.769513 24.7554 0 23.9519 0H1.45456C0.651059 0 0 0.769513 0 1.7192V58.2808C0 59.2305 0.651059 60 1.45456 60C2.25805 60 2.90911 59.2305 2.90911 58.2808V30.9456H14.5939V34.7278C14.5939 35.6775 15.2449 36.447 16.0484 36.447H38.5457C39.0589 36.447 39.5343 36.1272 39.7961 35.6053C40.0579 35.084 40.0684 34.4376 39.8228 33.9046L33.6014 20.4096ZM2.90911 3.4384H22.4973V27.5072H2.90911V3.4384ZM17.503 33.0086V30.9456H23.9519C24.7554 30.9456 25.4064 30.176 25.4064 29.2264V8.93983H35.9886L30.6778 19.4936C30.4154 20.0156 30.4049 20.662 30.6504 21.1956L36.0969 33.0093H17.503V33.0086Z" fill="#F7CD46"/>
</svg>
