<svg width="32" height="60" viewBox="0 0 32 60" fill="none" xmlns="http://www.w3.org/2000/svg">
<path d="M30.3783 21.6888C29.4825 21.6888 28.7567 22.428 28.7567 23.3402V31.9275C28.7567 39.0906 23.0341 44.9181 16 44.9181C8.96586 44.9181 3.24333 39.0906 3.24333 31.9275V23.3402C3.24333 22.428 2.51747 21.6888 1.62167 21.6888C0.725857 21.6888 0 22.428 0 23.3402V31.9275C0 40.3549 6.31477 47.3073 14.3783 48.1383V56.6972H10.2697C9.37387 56.6972 8.64802 57.4364 8.64802 58.3486C8.64802 59.2608 9.37387 60 10.2697 60H21.7303C22.6261 60 23.352 59.2608 23.352 58.3486C23.352 57.4364 22.6261 56.6972 21.7303 56.6972H17.6217V48.1383C25.6852 47.3073 32 40.3549 32 31.9275V23.3402C32 22.428 31.2741 21.6888 30.3783 21.6888ZM16 43.0461C21.9911 43.0461 26.8652 38.0826 26.8652 31.9817V11.0644C26.8652 4.96345 21.9911 0 16 0C10.0089 0 5.13484 4.96345 5.13484 11.0644V31.9817C5.13484 38.0826 10.0089 43.0461 16 43.0461ZM8.37817 11.0644C8.37817 6.78461 11.7973 3.3028 16 3.3028C20.2027 3.3028 23.6218 6.78461 23.6218 11.0644V31.9817C23.6218 36.2615 20.2027 39.7433 16 39.7433C11.7973 39.7433 8.37817 36.2615 8.37817 31.9817V11.0644Z" fill="#F7CD46"/>
</svg>
