<svg width="50" height="44" viewBox="0 0 50 44" fill="none" xmlns="http://www.w3.org/2000/svg">
<path d="M45.8749 7.8074H37.3923V3.88971C37.3923 1.74472 35.6476 0 33.5026 0H16.262C14.1176 0 12.3728 1.74472 12.3728 3.88971V7.8074H3.88917C1.74472 7.8074 0 9.55212 0 11.6966V40.1103C0 42.2553 1.74472 44 3.88917 44H45.8749C48.0194 44 49.7641 42.2553 49.7641 40.1103V11.6971C49.7646 9.55212 48.0199 7.8074 45.8749 7.8074ZM15.0623 3.88971C15.0623 3.22851 15.6003 2.68998 16.2615 2.68998H33.5021C34.1633 2.68998 34.7018 3.22851 34.7018 3.88971V7.8074H15.0623V3.88971ZM3.88917 10.4974H45.8749C46.5361 10.4974 47.0741 11.0354 47.0741 11.6966V21.1857H37.3923V18.6604C37.3923 17.9174 36.7903 17.3154 36.0473 17.3154C35.3044 17.3154 34.7024 17.9174 34.7024 18.6604V21.1857H15.0623V18.6604C15.0623 17.9174 14.4603 17.3154 13.7173 17.3154C12.9743 17.3154 12.3723 17.9174 12.3723 18.6604V21.1857H2.68998V11.6971C2.68998 11.0354 3.22798 10.4974 3.88917 10.4974ZM45.8749 41.3111H3.88917C3.22798 41.3111 2.68998 40.7726 2.68998 40.1114V23.8757H12.3723V26.6652C12.3723 27.4082 12.9743 28.0102 13.7173 28.0102C14.4603 28.0102 15.0623 27.4082 15.0623 26.6652V23.8757H34.7024V26.6652C34.7024 27.4082 35.3044 28.0102 36.0473 28.0102C36.7903 28.0102 37.3923 27.4082 37.3923 26.6652V23.8757H47.0746V40.1108C47.0746 40.7726 46.5367 41.3111 45.8749 41.3111Z" fill="#F7CD46"/>
</svg>
