<svg width="20" height="20" viewBox="0 0 20 20" fill="none" xmlns="http://www.w3.org/2000/svg">
<path d="M5.5 9C6.66667 11.3333 8.66667 13.25 11 14.5L12.8333 12.6667C13.0833 12.4167 13.4167 12.3333 13.6667 12.5C14.5833 12.8333 15.5833 13 16.6667 13C17.0833 13 17.5 13.3333 17.5 13.8333V16.6667C17.5 17.0833 17.0833 17.5 16.6667 17.5C8.83333 17.5 2.5 11.1667 2.5 3.33333C2.5 2.91667 2.91667 2.5 3.33333 2.5H6.25C6.75 2.5 7.08333 2.91667 7.08333 3.33333C7.08333 4.33333 7.25 5.33333 7.58333 6.33333C7.66667 6.58333 7.58333 6.91667 7.41667 7.16667L5.5 9Z" fill="black"/>
</svg>
