<svg width="55" height="50" viewBox="0 0 55 50" fill="none" xmlns="http://www.w3.org/2000/svg">
<path d="M50.33 0H4.29043C1.92475 0 0 1.92475 0 4.29043V45.7096C0 48.0752 1.92475 50 4.29043 50H50.33C52.6957 50 54.6205 48.0752 54.6205 45.7096V4.29043C54.6205 1.92475 52.6957 0 50.33 0ZM14.2739 46.6997H4.29043C3.74455 46.6997 3.30033 46.2554 3.30033 45.7096V16.1716H14.2739V46.6997ZM51.3201 45.7096C51.3201 46.2554 50.8759 46.6997 50.33 46.6997H17.5743V16.1716H51.3201V45.7096ZM51.3201 12.8713H3.30033V4.29043C3.30033 3.74455 3.74455 3.30033 4.29043 3.30033H50.33C50.8759 3.30033 51.3201 3.74455 51.3201 4.29043V12.8713ZM46.7828 5.72079C45.5089 5.72079 44.4726 6.7571 44.4726 8.03102C44.4726 9.30495 45.5089 10.3413 46.7828 10.3413C48.0568 10.3413 49.0931 9.30495 49.0931 8.03102C49.0931 6.7571 48.0568 5.72079 46.7828 5.72079ZM40.1822 5.72079C38.9082 5.72079 37.8719 6.7571 37.8719 8.03102C37.8719 9.30495 38.9082 10.3413 40.1822 10.3413C41.4561 10.3413 42.4924 9.30495 42.4924 8.03102C42.4924 6.7571 41.4561 5.72079 40.1822 5.72079ZM33.5815 5.72079C32.3076 5.72079 31.2713 6.7571 31.2713 8.03102C31.2713 9.30495 32.3076 10.3413 33.5815 10.3413C34.8554 10.3413 35.8918 9.30495 35.8918 8.03102C35.8918 6.7571 34.8554 5.72079 33.5815 5.72079Z" fill="#F7CD46"/>
</svg>
