<svg width="49" height="62" viewBox="0 0 49 62" fill="none" xmlns="http://www.w3.org/2000/svg">
<path d="M2.25316 53.3557H11.1506V59.7468C11.1506 60.4987 11.6519 61 12.4038 61H46.8657C47.6176 61 48.1188 60.4987 48.1188 59.7468V52.1026C48.1188 51.3507 47.6176 50.8494 46.8657 50.8494H38.8454C40.8505 47.2152 41.9783 43.0798 41.9783 38.9444C41.9783 31.0495 38.2189 23.6558 31.8277 19.0191C31.7024 18.3925 31.4518 17.0141 30.1986 15.7609L34.0834 11.6255C36.3391 9.11916 36.2138 5.35968 33.7075 3.10399L33.2062 2.60273C30.6999 0.347038 26.9404 0.472354 24.6847 2.97867L8.39365 20.7736C7.14049 22.152 6.63922 24.0318 6.88985 25.7862L4.00759 28.9191C2.87974 30.1723 2.87974 32.1773 4.1329 33.3052L5.63669 34.6836C6.26327 35.3102 8.26833 36.1874 10.0228 34.5583L12.905 31.4254C13.0303 31.4254 15.7873 31.676 17.7923 29.4204L21.0506 25.7862C23.9328 27.7913 26.4392 27.0394 27.1911 26.7887C30.9505 29.7963 33.0809 34.3077 33.0809 39.0697C33.0809 43.7064 31.0758 47.9671 27.6923 50.9747H19.6721V47.0899C19.6721 46.338 19.1708 45.8368 18.4189 45.8368H2.25316C1.50126 45.8368 1 46.338 1 47.0899V52.2279C1 52.7291 1.50126 53.3557 2.25316 53.3557ZM8.14301 32.6786C7.89238 32.9292 7.51643 32.9292 7.2658 32.6786L5.76201 31.3001C5.51138 31.0495 5.51138 30.6735 5.76201 30.4229L7.89238 28.0419C8.51896 29.0444 9.89744 30.0469 10.2734 30.1723L8.14301 32.6786ZM20.1734 15.5103C19.5468 16.2622 16.9151 19.3951 19.4215 23.7811L16.0379 27.5406C15.4113 28.4178 13.0303 29.5457 11.0253 27.7913L10.524 27.1647C9.14554 25.7862 9.02023 23.6558 10.2734 22.152L26.5645 4.35715C27.9429 2.97867 30.0733 2.85336 31.5771 4.10652L32.0784 4.7331C33.4569 6.11158 33.5822 8.24195 32.329 9.74574L28.3189 14.1318C23.9328 11.8761 20.7999 14.8837 20.1734 15.5103ZM25.186 24.533C22.805 24.533 20.9253 22.6533 20.9253 20.2723C20.9253 17.8913 22.805 16.0115 25.186 16.0115C27.567 16.0115 29.4467 17.8913 29.4467 20.2723C29.5721 22.528 27.567 24.533 25.186 24.533ZM35.5872 38.9444C35.5872 33.6811 33.4569 28.9191 29.5721 25.4102C31.3265 24.0318 31.7024 22.152 31.7024 22.152C36.5898 26.4128 39.472 32.5533 39.472 39.0697C39.472 43.3304 38.2189 47.3406 35.9632 50.9747H31.0758C33.9581 47.4659 35.5872 43.3304 35.5872 38.9444ZM45.6125 53.3557V58.4937H13.6569V53.3557H45.6125ZM3.50632 48.2178H17.1658V50.8494H3.50632V48.2178Z" fill="#F7CD46" stroke="#F7CD46" stroke-width="0.75"/>
</svg>
