<svg width="94" height="50" viewBox="0 0 94 50" fill="none" xmlns="http://www.w3.org/2000/svg">
<path d="M92.192 0H41.5781C41.0987 0 40.6389 0.188135 40.3 0.523021C39.961 0.857906 39.7705 1.31211 39.7705 1.78571V26.7856C39.7705 27.2592 39.961 27.7134 40.3 28.0483C40.6389 28.3832 41.0987 28.5713 41.5781 28.5713H92.192C92.6714 28.5713 93.1312 28.3832 93.4702 28.0483C93.8092 27.7134 93.9996 27.2592 93.9996 26.7856V1.78571C93.9996 1.31211 93.8092 0.857906 93.4702 0.523021C93.1312 0.188135 92.6714 0 92.192 0ZM90.3844 24.9999H43.3858V3.57142H90.3844V24.9999Z" fill="#F7CD46"/>
<path d="M0.00273612 27.0805C0.00273612 27.1341 0.00273612 27.1876 0.00273612 27.2412C0.0179482 27.2986 0.0360474 27.3552 0.0569656 27.4108L0.129271 27.5716L0.210614 27.7233L0.319073 27.8751L0.38234 27.9644L0.554065 28.1251L0.662524 28.2144L0.870402 28.3305L0.978861 28.393C1.07257 28.4307 1.16932 28.4606 1.26808 28.4823H1.33135C1.48621 28.5333 1.64735 28.5633 1.81037 28.5716H30.7326C30.8558 28.5841 30.98 28.5841 31.1031 28.5716H31.1664C31.2652 28.5498 31.3619 28.52 31.4556 28.4823L31.5641 28.4198L31.772 28.3037L31.8804 28.2144L32.0522 28.0537L32.1154 27.9644L32.2691 27.6787L32.3504 27.5269L32.4227 27.3662C32.4436 27.3106 32.4617 27.254 32.477 27.1966C32.477 27.143 32.477 27.0894 32.477 27.0358C32.4803 26.9734 32.4803 26.9108 32.477 26.8483L32.5402 26.7858V1.78592C32.5402 1.78592 32.5402 1.71449 32.5402 1.6877C32.5435 1.62525 32.5435 1.56266 32.5402 1.50021C32.5402 1.44663 32.5402 1.39306 32.5402 1.33949C32.525 1.28209 32.5069 1.22547 32.486 1.16985L32.4137 1.00914L32.2691 0.893064L32.1606 0.741281L32.0973 0.651993L31.9618 0.526994L31.8352 0.419853L31.6906 0.330565L31.537 0.250208L31.3833 0.196639L31.2026 0.143066H31.0489H30.8501H1.74711H1.5573H1.38558L1.22289 0.196639L1.0602 0.259138L0.906555 0.339496L0.752906 0.42878L0.626371 0.535921L0.490798 0.660924L0.427531 0.750208L0.273882 0.893064L0.192538 1.04485L0.120233 1.20556C0.0993144 1.26118 0.0812152 1.3178 0.0660032 1.37521C0.0660032 1.42878 0.0660032 1.48235 0.0660032 1.53592C0.0626794 1.59838 0.0626794 1.66096 0.0660032 1.72342L0.00273612 1.78592V26.7858C0.00273612 26.7858 0.00273612 26.8573 0.00273612 26.8841C-0.000912041 26.9495 -0.000912041 27.0151 0.00273612 27.0805ZM28.9249 22.8484L18.9829 14.2859L28.9249 5.72341V22.8484ZM25.9243 25.0001H6.61869L16.2715 16.6609L25.9243 25.0001ZM16.2715 11.9109L6.61869 3.57163H25.9243L16.2715 11.9109ZM13.56 14.2859L3.61801 22.8484V5.72341L13.56 14.2859Z" fill="#F7CD46"/>
<path d="M1.81057 39.2858H47.0015C47.4809 39.2858 47.9407 39.0976 48.2797 38.7628C48.6187 38.4279 48.8092 37.9737 48.8092 37.5001C48.8092 37.0265 48.6187 36.5723 48.2797 36.2374C47.9407 35.9025 47.4809 35.7144 47.0015 35.7144H1.81057C1.33115 35.7144 0.871373 35.9025 0.532375 36.2374C0.193377 36.5723 0.00292969 37.0265 0.00292969 37.5001C0.00292969 37.9737 0.193377 38.4279 0.532375 38.7628C0.871373 39.0976 1.33115 39.2858 1.81057 39.2858Z" fill="#F7CD46"/>
<path d="M92.1919 35.7144H57.8468C57.3674 35.7144 56.9076 35.9025 56.5686 36.2374C56.2296 36.5723 56.0392 37.0265 56.0392 37.5001C56.0392 37.9737 56.2296 38.4279 56.5686 38.7628C56.9076 39.0976 57.3674 39.2858 57.8468 39.2858H92.1919C92.6714 39.2858 93.1311 39.0976 93.4701 38.7628C93.8091 38.4279 93.9996 37.9737 93.9996 37.5001C93.9996 37.0265 93.8091 36.5723 93.4701 36.2374C93.1311 35.9025 92.6714 35.7144 92.1919 35.7144Z" fill="#F7CD46"/>
<path d="M32.5404 46.4287H1.81057C1.33115 46.4287 0.871373 46.6168 0.532375 46.9517C0.193377 47.2866 0.00292969 47.7408 0.00292969 48.2144C0.00292969 48.688 0.193377 49.1422 0.532375 49.4771C0.871373 49.812 1.33115 50.0001 1.81057 50.0001H32.5404C33.0198 50.0001 33.4796 49.812 33.8186 49.4771C34.1576 49.1422 34.348 48.688 34.348 48.2144C34.348 47.7408 34.1576 47.2866 33.8186 46.9517C33.4796 46.6168 33.0198 46.4287 32.5404 46.4287Z" fill="#F7CD46"/>
<path d="M92.1925 46.4287H43.3863C42.9068 46.4287 42.4471 46.6168 42.1081 46.9517C41.7691 47.2866 41.5786 47.7408 41.5786 48.2144C41.5786 48.688 41.7691 49.1422 42.1081 49.4771C42.4471 49.812 42.9068 50.0001 43.3863 50.0001H92.1925C92.6719 50.0001 93.1317 49.812 93.4707 49.4771C93.8097 49.1422 94.0001 48.688 94.0001 48.2144C94.0001 47.7408 93.8097 47.2866 93.4707 46.9517C93.1317 46.6168 92.6719 46.4287 92.1925 46.4287Z" fill="#F7CD46"/>
</svg>
