<svg width="85" height="50" viewBox="0 0 85 50" fill="none" xmlns="http://www.w3.org/2000/svg">
<path d="M75.2595 25.567C77.6926 23.5244 79.2404 20.4605 79.2404 17.0444C79.2404 10.911 74.2494 5.92001 68.1151 5.92001C61.9817 5.92001 56.9898 10.911 56.9898 17.0444C56.9898 20.4596 58.5376 23.5235 60.9697 25.567C58.9308 26.5492 57.1277 27.9432 55.66 29.6355C53.774 28.1249 51.6354 26.9135 49.3039 26.1056C53.4814 23.6791 56.2983 19.1578 56.2983 13.9926C56.2983 6.27691 50.0205 0 42.3039 0C34.5891 0 28.3104 6.27691 28.3104 13.9926C28.3104 19.1578 31.1255 23.68 35.302 26.1056C32.9724 26.9135 30.8329 28.1249 28.9468 29.6355C27.4792 27.9432 25.6733 26.5492 23.6353 25.567C26.0684 23.5244 27.618 20.4605 27.618 17.0444C27.618 10.911 22.6261 5.92001 16.4899 5.92001C10.3537 5.92001 5.36743 10.911 5.36743 17.0444C5.36743 20.4596 6.91522 23.5235 9.34734 25.567C3.8215 28.234 0 33.8949 0 40.429C0 42.4465 1.63259 44.0772 3.6491 44.0772H21.0206C20.9386 44.8283 20.8845 45.5793 20.8845 46.349C20.8845 48.3646 22.519 50 24.5355 50H60.0723C62.0888 50 63.7242 48.3646 63.7242 46.349C63.7242 45.5803 63.6674 44.8283 63.5882 44.0772H80.9568C82.9733 44.0772 84.6078 42.4474 84.6078 40.429C84.6078 33.894 80.7854 28.234 75.2595 25.567ZM60.6398 17.0444C60.6398 12.9135 63.987 9.56818 68.116 9.56818C72.245 9.56818 75.5922 12.9154 75.5922 17.0444C75.5922 21.1734 72.2441 24.5187 68.116 24.5187C63.987 24.5187 60.6398 21.1734 60.6398 17.0444ZM31.9604 13.9926C31.9604 8.28037 36.5908 3.64817 42.3039 3.64817C48.0152 3.64817 52.6474 8.2813 52.6474 13.9926C52.6474 19.7067 48.0142 24.3379 42.3039 24.3379C36.5898 24.337 31.9604 19.7057 31.9604 13.9926ZM9.01373 17.0444C9.01373 12.9135 12.3609 9.56818 16.489 9.56818C20.6199 9.56818 23.9661 12.9154 23.9661 17.0444C23.9661 21.1734 20.6189 24.5187 16.489 24.5187C12.3609 24.5187 9.01373 21.1734 9.01373 17.0444ZM3.6491 40.429C3.6491 33.3377 9.39952 27.5854 16.4899 27.5854C20.427 27.5854 23.9438 29.3615 26.3004 32.1486C24.2056 34.5053 22.6289 37.3232 21.7353 40.429H3.6491ZM60.0714 46.3481H24.5355C24.5355 45.5793 24.5914 44.8227 24.6846 44.0763C24.8448 42.8145 25.1384 41.5929 25.5493 40.4281C26.1979 38.5961 27.1372 36.9039 28.3132 35.3999C29.1108 34.3823 30.0157 33.4495 31.0146 32.6258C34.086 30.0967 38.0165 28.5769 42.3048 28.5769C46.5922 28.5769 50.5228 30.0958 53.5951 32.6258C54.5921 33.4467 55.496 34.3823 56.2965 35.3999C57.4725 36.902 58.4118 38.597 59.0594 40.4281C59.4713 41.5929 59.7648 42.8155 59.9251 44.0763C60.0192 44.8236 60.0714 45.5793 60.0714 46.3481ZM62.8734 40.429C61.9779 37.3232 60.4003 34.5044 58.3083 32.1486C60.6622 29.3615 64.1799 27.5854 68.116 27.5854C75.2092 27.5854 80.9578 33.3377 80.9578 40.429H62.8734Z" fill="#F7CD46"/>
</svg>
