<svg width="36" height="64" viewBox="0 0 36 64" fill="none" xmlns="http://www.w3.org/2000/svg">
<path d="M33.0344 57.9979C33.048 59.0425 32.6474 60.0501 31.9201 60.8001C31.1928 61.5501 30.1981 61.9815 29.1535 62H5.88119C4.83662 61.9815 3.84188 61.5501 3.11459 60.8001C2.38731 60.0501 1.98667 59.0425 2.00034 57.9979V6.00213C1.98667 4.95748 2.38731 3.94995 3.11459 3.19993C3.84188 2.44991 4.83662 2.01848 5.88119 2H29.1535C30.1981 2.01848 31.1928 2.44991 31.9201 3.19993C32.6474 3.94995 33.048 4.95748 33.0344 6.00213V57.9979Z" stroke="#F7CD46" stroke-width="4" stroke-linecap="round" stroke-linejoin="round"/>
<path d="M14.4154 10.604H20.6197" stroke="#F7CD46" stroke-width="2" stroke-linecap="round" stroke-linejoin="round"/>
<path d="M17 55.7959C18.6569 55.7959 20 54.4528 20 52.7959C20 51.1391 18.6569 49.7959 17 49.7959C15.3431 49.7959 14 51.1391 14 52.7959C14 54.4528 15.3431 55.7959 17 55.7959Z" fill="#F7CD46"/>
</svg>
