<svg width="643" height="654" viewBox="0 0 643 654" fill="none" xmlns="http://www.w3.org/2000/svg">
<g clip-path="url(#clip0)">
<path d="M149.643 648.999L18.4836 573.277C-6.39753 558.99 -6.39753 522.914 18.4836 508.27L456.036 254.313C467.411 247.527 481.628 247.527 493.358 254.313L624.162 330.393C649.043 344.68 649.043 380.756 624.162 395.4L186.609 648.999C175.235 655.786 161.017 655.786 149.643 648.999Z" fill="#BEDAFF"/>
<path d="M555.56 67.8645L466.343 119.656C459.945 123.585 448.215 122.871 440.751 118.584L355.444 68.936C347.98 64.6499 347.269 57.8634 353.667 54.2916L442.884 2.50022C449.282 -1.42878 461.011 -0.714421 468.476 3.57176L554.138 53.22C561.247 57.5062 562.313 64.2927 555.56 67.8645Z" fill="#6EF8FF"/>
<path d="M559.826 390.042V62.8639C559.47 65.007 558.048 66.7929 555.56 68.2216L466.343 120.013C463.144 121.799 458.879 122.513 454.614 122.513V452.192C458.879 452.192 463.144 451.478 466.343 449.692L555.56 397.9C559.115 395.4 560.536 392.9 559.826 390.042Z" fill="url(#paint0_linear)"/>
<path d="M441.107 118.584L355.445 68.936C351.89 66.7929 349.758 64.2926 349.402 61.7924V388.971C348.691 392.186 350.824 395.757 355.445 398.615L441.107 448.263C445.017 450.406 449.993 451.835 454.614 451.835V122.156C449.993 122.156 445.017 121.085 441.107 118.584Z" fill="url(#paint1_linear)"/>
<path d="M441.107 118.584L355.445 68.936C351.89 66.7929 349.758 64.2926 349.402 61.7924V388.971C348.691 392.186 350.824 395.757 355.445 398.615L441.107 448.263C445.017 450.406 449.993 451.835 454.614 451.835V122.156C449.993 122.156 445.017 121.085 441.107 118.584Z" fill="#0DB1C2"/>
<path d="M415.159 262.886L325.943 314.677C319.545 318.606 307.815 317.892 300.351 313.606L215.044 263.957C207.58 259.671 206.869 252.885 213.267 249.313L302.128 197.521C308.526 193.592 320.256 194.307 327.72 198.593L413.382 248.241C420.847 252.527 421.557 259.314 415.159 262.886Z" fill="#C0C0F6"/>
<path d="M419.425 471.48V257.885C419.07 260.028 417.648 261.814 415.16 263.243L325.943 314.677C322.744 316.463 318.479 317.177 314.213 317.177V532.915C318.479 532.915 322.744 532.201 325.943 530.415L415.16 478.623C418.359 476.838 419.781 473.98 419.425 471.48Z" fill="url(#paint2_linear)"/>
<path d="M300.351 313.606L215.044 263.957C211.49 261.814 209.357 259.314 209.002 256.814V470.408C208.291 473.623 210.423 477.195 215.044 480.052L300.706 529.701C304.616 531.844 309.593 533.272 314.213 533.272V317.177C309.237 317.177 304.261 315.749 300.351 313.606Z" fill="#6B5BDF"/>
<path d="M300.351 313.606L215.044 263.957C211.49 261.814 209.357 259.314 209.002 256.814V470.408C208.291 473.623 210.423 477.195 215.044 480.052L300.706 529.701C304.616 531.844 309.593 533.272 314.213 533.272V317.177C309.237 317.177 304.261 315.749 300.351 313.606Z" fill="#6B5BDF"/>
<path d="M277.602 424.689L188.386 476.481C181.988 480.41 170.258 479.695 162.794 475.409L77.1313 425.761C69.6669 421.475 68.956 414.688 75.354 411.116L164.571 359.325C170.969 355.396 182.698 356.11 190.163 360.397L275.825 410.045C283.289 414.331 284 421.117 277.602 424.689Z" fill="#9FBFFF"/>
<path d="M281.868 551.132V419.689C281.513 421.832 280.091 423.618 277.603 425.046L188.386 476.481C185.187 478.267 180.922 478.981 176.656 478.981V612.924C180.922 612.924 185.187 612.21 188.386 610.424L277.603 558.632C280.802 556.847 282.223 553.989 281.868 551.132Z" fill="url(#paint3_linear)"/>
<path d="M162.794 475.409L77.1316 425.761C73.5772 423.618 71.4445 421.117 71.0891 418.617V550.06C70.3782 553.275 72.5109 556.847 77.1316 559.704L162.794 609.352C166.704 611.495 171.68 612.924 176.301 612.924V478.981C171.68 478.981 166.704 477.909 162.794 475.409Z" fill="url(#paint4_linear)"/>
<path d="M162.794 475.409L77.1316 425.761C73.5772 423.618 71.4445 421.117 71.0891 418.617V550.06C70.3782 553.275 72.5109 556.847 77.1316 559.704L162.794 609.352C166.704 611.495 171.68 612.924 176.301 612.924V478.981C171.68 478.981 166.704 477.909 162.794 475.409Z" fill="#2A54AF"/>
</g>
<defs>
<linearGradient id="paint0_linear" x1="591.501" y1="62.925" x2="435.431" y2="420.14" gradientUnits="userSpaceOnUse">
<stop stop-color="#00E9FF"/>
<stop offset="0.3341" stop-color="#04DAEE"/>
<stop offset="0.9921" stop-color="#0DB1C3"/>
<stop offset="0.9996" stop-color="#0DB1C2"/>
</linearGradient>
<linearGradient id="paint1_linear" x1="402.038" y1="532.237" x2="402.038" y2="28.0722" gradientUnits="userSpaceOnUse">
<stop offset="0.0715177" stop-color="#55D1FF"/>
<stop offset="0.1638" stop-color="#4FC3EE" stop-opacity="0.9006"/>
<stop offset="0.3466" stop-color="#41A0C2" stop-opacity="0.7038"/>
<stop offset="0.6024" stop-color="#29677B" stop-opacity="0.4282"/>
<stop offset="0.9186" stop-color="#0A191A" stop-opacity="0.0876338"/>
<stop offset="1" stop-color="#010400" stop-opacity="0"/>
</linearGradient>
<linearGradient id="paint2_linear" x1="447.049" y1="217.244" x2="278.993" y2="586.843" gradientUnits="userSpaceOnUse">
<stop stop-color="#A29AFB"/>
<stop offset="0.3251" stop-color="#9389F4"/>
<stop offset="0.9653" stop-color="#6D5EE0"/>
<stop offset="0.9996" stop-color="#6B5BDF"/>
</linearGradient>
<linearGradient id="paint3_linear" x1="274.094" y1="437.646" x2="114.723" y2="715.188" gradientUnits="userSpaceOnUse">
<stop stop-color="#6C91EA"/>
<stop offset="0.3656" stop-color="#4E75CF"/>
<stop offset="0.7632" stop-color="#345DB8"/>
<stop offset="0.9993" stop-color="#2A54AF"/>
</linearGradient>
<linearGradient id="paint4_linear" x1="123.906" y1="653.005" x2="123.906" y2="401.851" gradientUnits="userSpaceOnUse">
<stop stop-color="#FFE0AD"/>
<stop offset="0.4333" stop-color="#FFC291"/>
<stop offset="0.6309" stop-color="#FFB188"/>
<stop offset="0.9996" stop-color="#FF8871"/>
</linearGradient>
<clipPath id="clip0">
<rect width="643" height="654" fill="white"/>
</clipPath>
</defs>
</svg>
