<svg width="125" height="36" viewBox="0 0 125 36" fill="none" xmlns="http://www.w3.org/2000/svg">
<path d="M125 32.3913C125 34.3851 123.391 36 121.4 36H3.60423C1.61482 36 0 34.3851 0 32.3913V3.61338C0 1.6206 1.61482 0 3.60423 0H121.4C123.391 0 124.999 1.6206 124.999 3.61338L125 32.3913Z" fill="white"/>
<path d="M27.45 17.802C27.4228 14.7652 29.9276 13.2878 30.0422 13.2191C28.6236 11.1434 26.4248 10.8598 25.6521 10.8371C23.8054 10.6421 22.0141 11.9461 21.0734 11.9461C20.1139 11.9461 18.6652 10.856 17.1039 10.888C15.0948 10.9191 13.2152 12.0865 12.1844 13.8993C10.0569 17.5956 11.6436 23.0275 13.6818 26.0152C14.7014 27.4785 15.8928 29.1123 17.4522 29.0548C18.9779 28.9917 19.5477 28.0787 21.3888 28.0787C23.213 28.0787 23.7481 29.0548 25.3386 29.018C26.9759 28.9917 28.0068 27.5482 28.9907 26.0718C30.1689 24.3946 30.6421 22.7429 30.6609 22.6581C30.6224 22.6449 27.481 21.4417 27.45 17.802Z" fill="black"/>
<path d="M24.4456 8.87174C25.2661 7.84191 25.8275 6.44084 25.6717 5.01904C24.4841 5.07181 22.9988 5.84348 22.1435 6.8507C21.3868 7.73826 20.7108 9.19304 20.8855 10.5611C22.2196 10.661 23.5893 9.88556 24.4456 8.87174Z" fill="black"/>
<g opacity="0.6">
<path d="M49.5289 28.845H47.3968L46.2289 25.1619H42.1693L41.0567 28.845H38.981L43.003 16.306H45.4872L49.5289 28.845ZM45.8768 23.6166L44.8206 20.3425C44.7089 20.008 44.4995 19.2203 44.1906 17.9803H44.1531C44.0301 18.5136 43.832 19.3013 43.5597 20.3425L42.5223 23.6166H45.8768Z" fill="black"/>
<path d="M59.8722 24.2131C59.8722 25.7508 59.4581 26.9662 58.6301 27.8585C57.8884 28.6528 56.9674 29.0495 55.868 29.0495C54.6813 29.0495 53.8288 28.6217 53.3096 27.7662H53.2721V32.529H51.2705V22.78C51.2705 21.8133 51.2451 20.8211 51.1963 19.8035H52.9566L53.0683 21.2366H53.1059C53.7734 20.1569 54.7864 19.6179 56.1459 19.6179C57.2087 19.6179 58.0959 20.0391 58.8056 20.8824C59.5173 21.7266 59.8722 22.8365 59.8722 24.2131ZM57.833 24.2866C57.833 23.4066 57.6358 22.681 57.2396 22.1101C56.8068 21.5146 56.2257 21.2169 55.4971 21.2169C55.0033 21.2169 54.5545 21.3827 54.1537 21.7096C53.7518 22.0394 53.489 22.47 53.366 23.0033C53.304 23.252 53.273 23.4555 53.273 23.6157V25.1233C53.273 25.7809 53.4739 26.3359 53.8758 26.7891C54.2776 27.2423 54.7996 27.4684 55.4418 27.4684C56.1956 27.4684 56.7824 27.1763 57.2021 26.5941C57.6227 26.0108 57.833 25.242 57.833 24.2866Z" fill="black"/>
<path d="M70.2345 24.2132C70.2345 25.7509 69.8205 26.9663 68.9915 27.8586C68.2507 28.6529 67.3297 29.0496 66.2303 29.0496C65.0436 29.0496 64.1912 28.6218 63.6729 27.7663H63.6354V32.5292H61.6337V22.7801C61.6337 21.8134 61.6084 20.8212 61.5596 19.8037H63.3199L63.4316 21.2368H63.4692C64.1358 20.157 65.1488 19.618 66.5092 19.618C67.571 19.618 68.4582 20.0392 69.1699 20.8825C69.8787 21.7267 70.2345 22.8366 70.2345 24.2132ZM68.1953 24.2867C68.1953 23.4067 67.9972 22.6812 67.601 22.1102C67.1682 21.5147 66.589 21.217 65.8595 21.217C65.3647 21.217 64.9169 21.3828 64.5151 21.7097C64.1132 22.0395 63.8513 22.4701 63.7283 23.0034C63.6673 23.2522 63.6354 23.4557 63.6354 23.6158V25.1234C63.6354 25.781 63.8363 26.336 64.2362 26.7892C64.638 27.2415 65.1601 27.4685 65.8041 27.4685C66.558 27.4685 67.1448 27.1765 67.5644 26.5942C67.985 26.0109 68.1953 25.2421 68.1953 24.2867Z" fill="black"/>
<path d="M81.8197 25.3287C81.8197 26.3952 81.4508 27.263 80.71 27.9329C79.896 28.665 78.7628 29.0306 77.3067 29.0306C75.9623 29.0306 74.8845 28.7706 74.0686 28.2495L74.5324 26.5752C75.4112 27.1085 76.3754 27.3761 77.4259 27.3761C78.1798 27.3761 78.7666 27.2046 79.1881 26.8635C79.6078 26.5224 79.8172 26.0645 79.8172 25.4935C79.8172 24.9848 79.6444 24.556 79.298 24.2084C78.9534 23.8607 78.3779 23.5375 77.5743 23.2388C75.3867 22.4201 74.2939 21.2206 74.2939 19.6434C74.2939 18.6126 74.677 17.7674 75.444 17.1098C76.2082 16.4511 77.2278 16.1223 78.5028 16.1223C79.6397 16.1223 80.5842 16.3211 81.3381 16.7178L80.8377 18.3554C80.1336 17.9709 79.3374 17.7787 78.4465 17.7787C77.7423 17.7787 77.1922 17.953 76.7978 18.2998C76.4645 18.6098 76.2974 18.9876 76.2974 19.4351C76.2974 19.9307 76.488 20.3406 76.8711 20.6628C77.2044 20.9606 77.8099 21.2828 78.6887 21.6305C79.7637 22.0648 80.5532 22.5727 81.0611 23.155C81.5672 23.7354 81.8197 24.4618 81.8197 25.3287Z" fill="black"/>
<path d="M88.4375 21.3111H86.2313V25.7009C86.2313 26.8174 86.6199 27.3752 87.3992 27.3752C87.7569 27.3752 88.0536 27.3441 88.2883 27.2819L88.3437 28.8074C87.9493 28.9553 87.4302 29.0297 86.7871 29.0297C85.9965 29.0297 85.3788 28.7876 84.9328 28.3042C84.4888 27.8199 84.2653 27.0078 84.2653 25.8667V21.3093H82.9509V19.8017H84.2653V18.1463L86.2313 17.5508V19.8017H88.4375V21.3111Z" fill="black"/>
<path d="M98.3921 24.2497C98.3921 25.6395 97.9959 26.7805 97.2054 27.6728C96.3764 28.5915 95.2761 29.0494 93.9044 29.0494C92.5825 29.0494 91.5301 28.6094 90.7452 27.7293C89.9603 26.8493 89.5679 25.7384 89.5679 24.3996C89.5679 22.9985 89.9716 21.8509 90.7818 20.9586C91.5901 20.0654 92.6811 19.6188 94.0527 19.6188C95.3746 19.6188 96.4384 20.0588 97.2411 20.9398C98.009 21.7943 98.3921 22.8977 98.3921 24.2497ZM96.3154 24.3148C96.3154 23.4809 96.1379 22.7658 95.7783 22.1693C95.3587 21.4476 94.7588 21.0877 93.9814 21.0877C93.1768 21.0877 92.5656 21.4485 92.1459 22.1693C91.7864 22.7667 91.6089 23.4931 91.6089 24.3524C91.6089 25.1863 91.7864 25.9014 92.1459 26.4969C92.5788 27.2186 93.1834 27.5786 93.9636 27.5786C94.7278 27.5786 95.3277 27.2111 95.7605 26.4781C96.1295 25.8703 96.3154 25.1477 96.3154 24.3148Z" fill="black"/>
<path d="M104.898 21.5702C104.7 21.5334 104.489 21.5146 104.267 21.5146C103.563 21.5146 103.019 21.7812 102.636 22.3155C102.302 22.7866 102.135 23.3821 102.135 24.101V28.845H100.134L100.153 22.6509C100.153 21.6088 100.128 20.66 100.078 19.8045H101.822L101.895 21.5344H101.95C102.161 20.9398 102.495 20.4612 102.951 20.1022C103.397 19.779 103.879 19.6179 104.398 19.6179C104.583 19.6179 104.75 19.6311 104.898 19.6547V21.5702Z" fill="black"/>
<path d="M113.85 23.8964C113.85 24.2563 113.827 24.5597 113.777 24.8075H107.772C107.796 25.7007 108.086 26.3838 108.644 26.8549C109.15 27.2761 109.804 27.4871 110.608 27.4871C111.497 27.4871 112.308 27.3449 113.037 27.0594L113.351 28.4538C112.499 28.827 111.492 29.0126 110.331 29.0126C108.934 29.0126 107.837 28.5999 107.039 27.7755C106.243 26.951 105.844 25.8439 105.844 24.4551C105.844 23.0917 106.215 21.9564 106.957 21.0509C107.735 20.0842 108.785 19.6008 110.107 19.6008C111.406 19.6008 112.389 20.0842 113.056 21.0509C113.585 21.8188 113.85 22.7685 113.85 23.8964ZM111.942 23.3753C111.955 22.7798 111.824 22.2654 111.553 21.831C111.207 21.2723 110.674 20.9934 109.958 20.9934C109.304 20.9934 108.771 21.2657 108.365 21.8122C108.032 22.2466 107.833 22.7676 107.772 23.3744H111.942V23.3753Z" fill="black"/>
</g>
<g opacity="0.6">
<path d="M45.2148 8.59227C45.2148 9.70126 44.8834 10.5361 44.2215 11.0967C43.6084 11.6139 42.7372 11.8731 41.6087 11.8731C41.0491 11.8731 40.5703 11.8486 40.1694 11.7996V5.7402C40.6924 5.6554 41.2557 5.61206 41.8641 5.61206C42.939 5.61206 43.7493 5.84667 44.2957 6.31589C44.9078 6.84636 45.2148 7.60484 45.2148 8.59227ZM44.1774 8.6196C44.1774 7.90069 43.9877 7.3495 43.6084 6.96508C43.2291 6.5816 42.6752 6.38938 41.9457 6.38938C41.6359 6.38938 41.3721 6.41011 41.1533 6.45345V11.0599C41.2745 11.0788 41.496 11.0872 41.818 11.0872C42.571 11.0872 43.1522 10.8771 43.5615 10.4569C43.9708 10.0367 44.1774 9.42425 44.1774 8.6196Z" fill="black"/>
<path d="M50.7155 9.56063C50.7155 10.2437 50.5212 10.8034 50.1325 11.2425C49.725 11.6938 49.1852 11.919 48.5111 11.919C47.8614 11.919 47.3441 11.7032 46.9583 11.2698C46.5733 10.8373 46.3809 10.2918 46.3809 9.63412C46.3809 8.94631 46.579 8.38192 46.977 7.9438C47.3751 7.50567 47.9102 7.28613 48.5843 7.28613C49.234 7.28613 49.756 7.5019 50.1513 7.93437C50.5268 8.3546 50.7155 8.89731 50.7155 9.56063ZM49.695 9.59267C49.695 9.1828 49.6067 8.83136 49.4312 8.53833C49.2246 8.18406 48.9308 8.00692 48.5487 8.00692C48.1534 8.00692 47.853 8.18406 47.6464 8.53833C47.4699 8.83136 47.3826 9.18846 47.3826 9.61057C47.3826 10.0204 47.4709 10.3719 47.6464 10.6649C47.8595 11.0192 48.1562 11.1963 48.5393 11.1963C48.9148 11.1963 49.2096 11.0163 49.4218 10.6555C49.6039 10.3568 49.695 10.0025 49.695 9.59267Z" fill="black"/>
<path d="M58.091 7.37671L56.7062 11.8183H55.8049L55.2313 9.88959C55.0858 9.40812 54.9675 8.92947 54.8755 8.4546H54.8576C54.7722 8.94266 54.6539 9.42036 54.5018 9.88959L53.8925 11.8183H52.9809L51.6787 7.37671H52.6898L53.1903 9.4882C53.3114 9.98758 53.4109 10.4634 53.4907 10.9138H53.5085C53.5818 10.5425 53.7029 10.0695 53.8737 9.49763L54.5018 7.37765H55.3036L55.9054 9.4524C56.0509 9.95837 56.1692 10.4455 56.2603 10.9147H56.2875C56.3542 10.4577 56.4546 9.97062 56.5879 9.4524L57.125 7.37765H58.091V7.37671Z" fill="black"/>
<path d="M63.1918 11.8181H62.2079V9.27409C62.2079 8.49018 61.9112 8.09822 61.316 8.09822C61.024 8.09822 60.7884 8.20563 60.6053 8.42139C60.4241 8.63716 60.3321 8.89156 60.3321 9.1827V11.8171H59.3482V8.64564C59.3482 8.25556 59.336 7.83251 59.3125 7.3746H60.1772L60.2232 8.06901H60.2504C60.3649 7.85324 60.5358 7.67516 60.7602 7.53289C61.0268 7.36706 61.3254 7.2832 61.6521 7.2832C62.0652 7.2832 62.4088 7.417 62.682 7.68553C63.0219 8.01436 63.1918 8.50525 63.1918 9.15726V11.8181Z" fill="black"/>
<path d="M65.9051 11.8182H64.9221V5.33862H65.9051V11.8182Z" fill="black"/>
<path d="M71.6979 9.56063C71.6979 10.2437 71.5036 10.8034 71.1149 11.2425C70.7075 11.6938 70.1667 11.919 69.4935 11.919C68.8429 11.919 68.3256 11.7032 67.9407 11.2698C67.5557 10.8373 67.3633 10.2918 67.3633 9.63412C67.3633 8.94631 67.5614 8.38192 67.9595 7.9438C68.3575 7.50567 68.8927 7.28613 69.5658 7.28613C70.2164 7.28613 70.7375 7.5019 71.1337 7.93437C71.5092 8.3546 71.6979 8.89731 71.6979 9.56063ZM70.6765 9.59267C70.6765 9.1828 70.5882 8.83136 70.4127 8.53833C70.2071 8.18406 69.9122 8.00692 69.5311 8.00692C69.1349 8.00692 68.8345 8.18406 68.6288 8.53833C68.4523 8.83136 68.365 9.18846 68.365 9.61057C68.365 10.0204 68.4533 10.3719 68.6288 10.6649C68.842 11.0192 69.1386 11.1963 69.5217 11.1963C69.8972 11.1963 70.1911 11.0163 70.4033 10.6555C70.5863 10.3568 70.6765 10.0025 70.6765 9.59267Z" fill="black"/>
<path d="M76.4598 11.8182H75.5763L75.5031 11.3065H75.4758C75.1735 11.7145 74.7426 11.919 74.1831 11.919C73.7653 11.919 73.4273 11.7842 73.1729 11.5167C72.9419 11.2736 72.8264 10.9711 72.8264 10.6121C72.8264 10.0694 73.0517 9.65579 73.5052 9.36936C73.9577 9.08293 74.5943 8.94254 75.4139 8.94913V8.86622C75.4139 8.28111 75.1078 7.98902 74.4947 7.98902C74.0582 7.98902 73.6733 8.09926 73.3409 8.31785L73.1409 7.66961C73.5521 7.41427 74.0601 7.28613 74.659 7.28613C75.8157 7.28613 76.3959 7.89857 76.3959 9.12344V10.7591C76.3959 11.2029 76.4175 11.5562 76.4598 11.8182ZM75.4383 10.2918V9.6068C74.353 9.58795 73.8103 9.88664 73.8103 10.5019C73.8103 10.7337 73.8723 10.907 73.999 11.0229C74.1258 11.1388 74.2873 11.1963 74.4797 11.1963C74.6957 11.1963 74.8975 11.1275 75.0815 10.9909C75.2665 10.8533 75.3801 10.679 75.4223 10.4652C75.4327 10.4171 75.4383 10.3587 75.4383 10.2918Z" fill="black"/>
<path d="M82.0505 11.8182H81.1774L81.1314 11.105H81.1041C80.8253 11.6477 80.3502 11.919 79.6827 11.919C79.1495 11.919 78.7054 11.7089 78.3533 11.2887C78.0012 10.8685 77.8257 10.3229 77.8257 9.65301C77.8257 8.9341 78.0163 8.35181 78.3993 7.90709C78.7702 7.49252 79.2246 7.28523 79.7653 7.28523C80.3596 7.28523 80.7755 7.48592 81.0121 7.88825H81.0309V5.33862H82.0158V10.6216C82.0158 11.0541 82.027 11.4526 82.0505 11.8182ZM81.0309 9.94509V9.20452C81.0309 9.07637 81.0215 8.97273 81.0037 8.89359C80.9483 8.65615 80.8291 8.4564 80.6479 8.29528C80.4648 8.13416 80.2441 8.05313 79.9897 8.05313C79.6226 8.05313 79.3353 8.19918 79.1241 8.4922C78.9147 8.78523 78.8087 9.15929 78.8087 9.61626C78.8087 10.0553 78.9091 10.4115 79.111 10.6857C79.3241 10.9778 79.6114 11.1238 79.9709 11.1238C80.2939 11.1238 80.5521 11.0023 80.7483 10.7582C80.938 10.533 81.0309 10.2617 81.0309 9.94509Z" fill="black"/>
<path d="M90.4655 9.56063C90.4655 10.2437 90.2712 10.8034 89.8825 11.2425C89.475 11.6938 88.9361 11.919 88.2611 11.919C87.6124 11.919 87.0951 11.7032 86.7083 11.2698C86.3233 10.8373 86.1309 10.2918 86.1309 9.63412C86.1309 8.94631 86.329 8.38192 86.727 7.9438C87.1251 7.50567 87.6602 7.28613 88.3353 7.28613C88.984 7.28613 89.507 7.5019 89.9013 7.93437C90.2768 8.3546 90.4655 8.89731 90.4655 9.56063ZM89.4459 9.59267C89.4459 9.1828 89.3577 8.83136 89.1821 8.53833C88.9746 8.18406 88.6817 8.00692 88.2987 8.00692C87.9043 8.00692 87.6039 8.18406 87.3964 8.53833C87.2199 8.83136 87.1326 9.18846 87.1326 9.61057C87.1326 10.0204 87.2209 10.3719 87.3964 10.6649C87.6095 11.0192 87.9062 11.1963 88.2893 11.1963C88.6648 11.1963 88.9606 11.0163 89.1727 10.6555C89.3539 10.3568 89.4459 10.0025 89.4459 9.59267Z" fill="black"/>
<path d="M95.7558 11.8181H94.7728V9.27409C94.7728 8.49018 94.4762 8.09822 93.88 8.09822C93.588 8.09822 93.3524 8.20563 93.1702 8.42139C92.9881 8.63716 92.897 8.89156 92.897 9.1827V11.8171H91.9122V8.64564C91.9122 8.25556 91.9009 7.83251 91.8774 7.3746H92.7412L92.7872 8.06901H92.8144C92.9299 7.85324 93.1008 7.67516 93.3242 7.53289C93.5918 7.36706 93.8894 7.2832 94.2171 7.2832C94.6292 7.2832 94.9728 7.417 95.246 7.68553C95.5868 8.01436 95.7558 8.50525 95.7558 9.15726V11.8181Z" fill="black"/>
<path d="M102.378 8.1163H101.294V10.274C101.294 10.8223 101.487 11.0965 101.868 11.0965C102.044 11.0965 102.191 11.0814 102.306 11.0503L102.332 11.7994C102.137 11.8729 101.882 11.9096 101.567 11.9096C101.179 11.9096 100.876 11.7909 100.658 11.5535C100.438 11.316 100.329 10.9166 100.329 10.3559V8.1163H99.6821V7.37666H100.329V6.56259L101.293 6.27051V7.37572H102.377V8.1163H102.378Z" fill="black"/>
<path d="M107.586 11.8182H106.601V9.29308C106.601 8.49691 106.305 8.09836 105.711 8.09836C105.254 8.09836 104.943 8.3292 104.772 8.79088C104.743 8.88793 104.726 9.00665 104.726 9.1461V11.8173H103.743V5.33862H104.726V8.01544H104.744C105.054 7.52832 105.498 7.28523 106.074 7.28523C106.481 7.28523 106.818 7.41902 107.086 7.68755C107.419 8.02204 107.586 8.51953 107.586 9.17719V11.8182Z" fill="black"/>
<path d="M112.959 9.38744C112.959 9.56458 112.946 9.71345 112.923 9.83499H109.972C109.985 10.2741 110.126 10.6085 110.399 10.8403C110.649 11.0476 110.971 11.1513 111.365 11.1513C111.802 11.1513 112.2 11.0815 112.558 10.9411L112.712 11.6271C112.293 11.8099 111.799 11.9013 111.227 11.9013C110.542 11.9013 110.002 11.6987 109.611 11.2935C109.219 10.8884 109.025 10.3447 109.025 9.66257C109.025 8.99266 109.206 8.43487 109.571 7.99014C109.952 7.51527 110.468 7.27783 111.118 7.27783C111.755 7.27783 112.238 7.51527 112.565 7.99014C112.829 8.36703 112.959 8.83342 112.959 9.38744ZM112.021 9.1321C112.028 8.83908 111.963 8.58656 111.83 8.37362C111.659 8.09944 111.399 7.96188 111.047 7.96188C110.726 7.96188 110.464 8.09567 110.264 8.3642C110.101 8.57808 110.004 8.83342 109.972 9.1321H112.021Z" fill="black"/>
</g>
</svg>
