<svg width="570" height="434" viewBox="0 0 570 434" fill="none" xmlns="http://www.w3.org/2000/svg">
<g clip-path="url(#clip0)">
<path d="M91.4489 179.439L64.6092 165.328L64.8858 289.012L89.6504 302.017L104.73 291.087L103.762 171.83L91.4489 179.439Z" fill="url(#paint0_linear)"/>
<path d="M126.728 9.654e-05C128.526 -1.1067 124.653 126.175 124.653 126.175L64.4706 163.529V38.738" fill="#DBA877"/>
<path d="M65.4384 41.2283L124.237 3.8739L150.523 16.3254L138.072 139.595L95.0452 148.034L71.8025 141.947L65.4384 41.2283Z" fill="#FFF0E1"/>
<path d="M64.6085 38.7379L91.4482 54.6481V179.439L64.6085 165.328V38.7379Z" fill="#F8C487"/>
<path d="M153.429 14.1117C155.228 13.0049 151.63 142.085 151.63 142.085L91.4485 179.439V54.6481" fill="#DBA877"/>
<path d="M71.6642 70.2816V127.697L79.6885 134.337V75.9539L71.6642 70.2816Z" fill="#FFF0E1"/>
<path d="M118.012 63.7792L144.852 79.6894V204.481L118.012 190.369V63.7792Z" fill="#F8C487"/>
<path d="M206.832 39.153C208.631 38.0462 205.034 167.126 205.034 167.126L144.852 204.481V79.6894" fill="#EDB57E"/>
<path opacity="0.29" d="M118.012 175.012L104.038 168.233V294.823L118.842 302.57" fill="url(#paint1_linear)"/>
<path d="M166.02 5.81077C167.818 4.70397 163.944 131.986 163.944 131.986L103.762 169.34V44.5486" fill="#457C7C"/>
<path d="M104.73 47.0389L163.529 9.68457L189.677 22.136L177.364 145.405L134.337 153.983L110.956 147.896L104.73 47.0389Z" fill="#FFF0E1"/>
<path d="M103.762 44.5486L130.74 60.4588V185.25L103.762 171.138V44.5486Z" fill="#4D9596"/>
<path d="M192.582 19.9224C194.381 18.8156 190.784 147.896 190.784 147.896L130.602 185.25V60.4588" fill="#457C7C"/>
<path d="M110.818 76.0923V133.646L118.98 140.148V81.7646L110.818 76.0923Z" fill="#FFF0E1"/>
<path d="M189.677 174.597L144.16 204.342L118.012 190.369L117.32 315.16L144.16 329.272L189.677 300.91C189.677 301.049 191.476 173.49 189.677 174.597Z" fill="url(#paint2_linear)"/>
<path d="M180.131 25.0414C181.93 23.9346 178.056 151.216 178.056 151.216L117.874 188.57V63.7792" fill="#CE9695"/>
<path d="M118.842 66.2695L177.64 28.9152L203.927 41.3666L191.475 164.636L148.449 173.214L125.206 167.126L118.842 66.2695Z" fill="#FFF0E1"/>
<path d="M118.012 63.7792L144.852 79.6894V204.481L118.012 190.369V63.7792Z" fill="#E2AAA6"/>
<path d="M206.832 39.153C208.631 38.0462 205.034 167.126 205.034 167.126L144.852 204.481V79.6893" fill="#CE9695"/>
<path d="M125.068 95.3229V152.876L133.092 159.379V100.995L125.068 95.3229Z" fill="#FFF0E1"/>
<path opacity="0.41" d="M492.386 392.774C490.172 401.49 484.638 408.823 476.891 413.527C462.502 422.243 439.121 435.109 429.298 433.172C414.633 430.129 411.451 425.425 409.929 416.155C408.408 406.748 492.386 392.774 492.386 392.774Z" fill="url(#paint3_linear)"/>
<path d="M483.255 371.192C483.255 371.192 502.624 378.109 492.387 394.296C492.387 394.296 489.066 399 485.331 400.799C481.595 402.735 444.794 424.18 444.794 424.18C444.794 424.18 428.331 431.374 414.911 422.519C401.491 413.665 410.207 397.063 421.828 389.592C433.311 382.121 461.535 361.922 483.255 371.192Z" fill="url(#paint4_linear)"/>
<path d="M408.27 409.1C408.27 409.1 410.068 423.903 427.639 424.871C445.209 425.84 456 413.388 458.214 410.898C462.088 406.609 469.697 400.799 481.318 397.893C490.449 395.541 495.983 387.655 495.43 384.75C495.43 384.75 495.983 394.711 486.99 399.968C479.52 404.257 454.893 418.646 446.731 423.488C444.794 424.595 442.719 425.425 440.367 425.84C431.236 427.5 408.27 429.99 408.27 409.1Z" fill="#D3D3D3"/>
<path d="M478.275 377.279C474.913 377.279 472.188 376.412 472.188 375.342C472.188 374.273 474.913 373.405 478.275 373.405C481.637 373.405 484.362 374.273 484.362 375.342C484.362 376.412 481.637 377.279 478.275 377.279Z" fill="#D3D3D3"/>
<path d="M151.217 251.243V257.33C151.217 268.536 145.268 278.774 135.445 284.308L104.455 301.879L18.678 253.733C7.05661 247.231 0.000793457 235.056 0.000793457 221.774L151.217 251.243Z" fill="url(#paint5_linear)"/>
<path d="M46.7625 199.085L2.21394 221.221C-0.691391 222.881 -0.691391 229.937 3.73579 231.874L94.4931 282.51C100.027 285.553 106.945 285.415 112.34 282.095L147.758 260.512C152.185 258.437 152.185 251.104 149.003 249.306L55.0635 199.085C52.4348 197.563 49.2528 197.563 46.7625 199.085Z" fill="#D3D3D3"/>
<path d="M46.7626 194.934L3.59758 220.114C0.692245 221.774 0.692261 226.063 3.73595 227.723L94.4931 278.359C100.027 281.403 106.945 281.265 112.34 277.944L147.758 256.362C150.801 254.425 150.801 249.998 147.619 248.199L55.0635 194.934C52.4349 193.413 49.2529 193.413 46.7626 194.934Z" fill="url(#paint6_linear)"/>
<path d="M90.066 272.825L136.828 244.74L58.5223 199.362L10.2383 227.862L90.066 272.825Z" fill="#4D9596"/>
<path d="M122.716 264.386C119.889 264.386 117.597 262.899 117.597 261.066C117.597 259.232 119.889 257.745 122.716 257.745C125.543 257.745 127.835 259.232 127.835 261.066C127.835 262.899 125.543 264.386 122.716 264.386Z" fill="#D3D3D3"/>
<path opacity="0.63" d="M85.2233 214.718L96.0146 269.228L90.0656 272.825L76.9223 209.599L85.2233 214.718Z" fill="url(#paint7_linear)"/>
<path opacity="0.63" d="M83.0098 268.813L69.8665 205.864L58.5218 199.362L53.8179 202.129L64.6092 258.437L83.0098 268.813Z" fill="url(#paint8_linear)"/>
<path opacity="0.49" d="M490.726 333.837L490.587 337.711C490.172 348.087 484.638 357.495 475.922 362.891L363.582 431.789L180.408 325.121C168.371 318.066 160.347 305.891 158.548 292.056L490.726 333.837Z" fill="url(#paint9_linear)"/>
<path d="M163.529 278.913L278.359 212.92C278.359 212.92 450.881 306.583 488.236 327.335C491.418 329.134 491.418 333.561 488.236 335.359C467.206 347.534 404.534 383.782 375.204 400.799C364.551 407.024 351.408 407.024 340.755 400.799L163.391 298.143C156.058 293.993 156.197 283.201 163.529 278.913Z" fill="#D3D3D3"/>
<path d="M293.578 56.8617L489.481 169.201C493.216 171.277 495.43 175.289 495.43 179.578V319.034C495.43 322.769 493.354 326.228 490.034 327.888L278.083 205.034V65.8544C279.881 62.3956 282.095 59.3519 285.83 57.5534C288.044 55.7549 291.087 55.4782 293.578 56.8617Z" fill="#D3D3D3"/>
<path d="M490.034 328.027L278.083 206.833V67.2379C278.083 61.9806 283.755 58.6602 288.321 61.2889L486.575 174.044C488.651 175.289 490.034 177.502 490.034 179.993V328.027Z" fill="url(#paint10_linear)"/>
<path d="M163.115 272.964L277.945 206.971C277.945 206.971 491.833 326.92 489.896 328.027C488.374 328.857 410.345 374.236 374.928 394.988C364.275 401.214 351.132 401.214 340.479 394.988L163.115 292.333C155.644 287.905 155.644 277.253 163.115 272.964Z" fill="url(#paint11_linear)"/>
<path d="M270.889 223.988L280.573 217.07L293.024 224.265L283.34 231.182L270.889 223.988Z" fill="#484F72"/>
<path d="M285.001 232.012L294.685 225.095L307.137 232.427L297.452 239.206L285.001 232.012Z" fill="#484F72"/>
<path d="M299.389 240.59L309.212 233.672L321.663 240.867L311.979 247.784L299.389 240.59Z" fill="#484F72"/>
<path d="M314.193 249.029L324.015 242.112L336.467 249.306L326.782 256.223L314.193 249.029Z" fill="#484F72"/>
<path d="M328.165 256.915L337.988 249.998L350.439 257.192L340.755 264.109L328.165 256.915Z" fill="#484F72"/>
<path d="M342.692 265.493L352.515 258.575L364.967 265.769L355.282 272.687L342.692 265.493Z" fill="#484F72"/>
<path d="M357.219 274.07L367.042 267.291L379.493 274.485L369.67 281.403L357.219 274.07Z" fill="#484F72"/>
<path d="M371.607 282.095L381.292 275.177L393.743 282.371L384.059 289.289L371.607 282.095Z" fill="#484F72"/>
<path d="M386.134 290.672L395.818 283.755L408.27 290.949L398.585 297.866L386.134 290.672Z" fill="#484F72"/>
<path d="M400.523 298.973L410.345 292.056L422.797 299.25L413.112 306.167L400.523 298.973Z" fill="#484F72"/>
<path d="M415.188 307.274L425.01 300.495L437.462 307.689L427.777 314.607L415.188 307.274Z" fill="#484F72"/>
<path d="M428.884 315.16L438.707 308.381L451.158 315.575L441.474 322.493L428.884 315.16Z" fill="#484F72"/>
<path d="M426.532 333.007L436.078 327.473L448.529 334.667L438.983 340.201L426.532 333.007Z" fill="#484F72"/>
<path d="M411.867 324.291L421.413 318.757L433.864 325.951L424.318 331.624L411.867 324.291Z" fill="#484F72"/>
<path d="M385.996 322.908L395.542 317.374L407.993 324.568L398.447 330.102L385.996 322.908Z" fill="#484F72"/>
<path d="M400.384 331.209L409.93 325.675L422.382 332.869L412.836 338.541L400.384 331.209Z" fill="#484F72"/>
<path d="M388.347 338.126L397.893 332.592L410.345 339.786L400.799 345.459L388.347 338.126Z" fill="#484F72"/>
<path d="M373.959 329.964L383.506 324.291L395.957 331.624L386.411 337.158L373.959 329.964Z" fill="#484F72"/>
<path d="M361.922 337.019L371.468 331.347L383.92 338.68L374.374 344.214L361.922 337.019Z" fill="#484F72"/>
<path d="M376.311 345.182L385.857 339.51L398.309 346.842L388.762 352.376L376.311 345.182Z" fill="#484F72"/>
<path d="M391.115 353.76L400.661 348.226L413.112 355.42L403.705 360.954L391.115 353.76Z" fill="#484F72"/>
<path d="M379.078 360.816L388.624 355.143L401.214 362.476L391.668 368.01L379.078 360.816Z" fill="#484F72"/>
<path d="M367.18 368.01L376.726 362.337L389.178 369.532L379.632 375.204L367.18 368.01Z" fill="#484F72"/>
<path d="M337.85 350.993L347.396 345.459L359.848 352.653L350.302 358.187L337.85 350.993Z" fill="#484F72"/>
<path d="M364.551 352.238L374.097 346.565L386.549 353.76L377.003 359.432L364.551 352.238Z" fill="#484F72"/>
<path d="M352.654 359.155L362.2 353.483L374.651 360.815L365.105 366.349L352.654 359.155Z" fill="#484F72"/>
<path d="M349.886 343.799L359.432 338.265L371.884 345.459L362.338 350.993L349.886 343.799Z" fill="#484F72"/>
<path d="M292.333 310.733L302.018 305.199L343.107 328.857L333.561 334.391L292.333 310.733Z" fill="#484F72"/>
<path d="M318.481 311.978L328.304 306.306L355.282 321.939L345.736 327.612L318.481 311.978Z" fill="#484F72"/>
<path d="M345.044 313.362L354.867 307.689L367.457 315.022L357.911 320.556L345.044 313.362Z" fill="#484F72"/>
<path d="M330.656 305.061L340.479 299.527L353.068 306.721L343.522 312.393L330.656 305.061Z" fill="#484F72"/>
<path d="M315.991 296.76L325.814 291.087L338.542 298.42L328.996 304.092L315.991 296.76Z" fill="#484F72"/>
<path d="M304.092 303.677L313.915 298.005L326.505 305.337L316.959 311.01L304.092 303.677Z" fill="#484F72"/>
<path d="M289.981 295.238L299.804 289.704L312.394 296.898L302.847 302.57L289.981 295.238Z" fill="#484F72"/>
<path d="M261.066 278.913L270.889 273.379L283.479 280.573L274.071 286.245L261.066 278.913Z" fill="#484F72"/>
<path d="M246.54 270.612L256.362 264.939L268.952 272.272L259.544 277.806L246.54 270.612Z" fill="#484F72"/>
<path d="M229.937 246.677L239.76 241.143L252.488 248.337L242.942 254.01L229.937 246.677Z" fill="#484F72"/>
<path d="M244.187 255.255L254.01 249.583L266.6 256.915L257.053 262.587L244.187 255.255Z" fill="#484F72"/>
<path d="M258.576 263.556L268.399 257.884L280.988 265.216L271.581 270.888L258.576 263.556Z" fill="#484F72"/>
<path d="M273.102 271.995L282.925 266.323L295.653 273.655L286.107 279.189L273.102 271.995Z" fill="#484F72"/>
<path d="M287.352 280.296L297.175 274.762L309.903 282.095L300.357 287.629L287.352 280.296Z" fill="#484F72"/>
<path d="M301.741 288.459L311.563 282.925L324.153 290.119L314.746 295.791L301.741 288.459Z" fill="#484F72"/>
<path d="M328.304 289.566L338.126 284.032L350.854 291.364L341.308 296.898L328.304 289.566Z" fill="#484F72"/>
<path d="M313.638 281.265L323.461 275.731L336.189 283.063L326.643 288.597L313.638 281.265Z" fill="#484F72"/>
<path d="M299.388 272.964L309.211 267.291L321.939 274.624L312.393 280.296L299.388 272.964Z" fill="#484F72"/>
<path d="M284.724 264.801L294.547 259.129L307.137 266.461L297.591 272.134L284.724 264.801Z" fill="#484F72"/>
<path d="M269.782 256.085L279.605 250.413L292.333 257.745L282.787 263.418L269.782 256.085Z" fill="#484F72"/>
<path d="M255.671 248.061L265.494 242.527L278.222 249.859L268.676 255.393L255.671 248.061Z" fill="#484F72"/>
<path d="M241.697 239.898L251.52 234.226L264.248 241.558L254.702 247.231L241.697 239.898Z" fill="#484F72"/>
<path d="M253.319 232.981L263.142 227.308L275.731 234.641L266.324 240.313L253.319 232.981Z" fill="#484F72"/>
<path d="M267.292 241.143L277.114 235.609L289.704 242.803L280.158 248.476L267.292 241.143Z" fill="#484F72"/>
<path d="M282.372 249.583L292.194 244.049L304.784 251.243L295.376 256.915L282.372 249.583Z" fill="#484F72"/>
<path d="M296.76 258.16L306.445 252.626L319.173 259.959L309.627 265.493L296.76 258.16Z" fill="#484F72"/>
<path d="M311.01 266.599L320.833 260.927L333.423 268.26L324.015 273.794L311.01 266.599Z" fill="#484F72"/>
<path d="M325.537 274.624L335.36 269.09L348.088 276.422L338.542 281.956L325.537 274.624Z" fill="#484F72"/>
<path d="M339.648 282.925L349.471 277.391L362.199 284.723L352.653 290.257L339.648 282.925Z" fill="#484F72"/>
<path d="M342.969 298.282L352.792 292.609L365.382 299.942L355.836 305.614L342.969 298.282Z" fill="#484F72"/>
<path d="M354.175 291.364L363.998 285.692L376.588 293.024L367.042 298.697L354.175 291.364Z" fill="#484F72"/>
<path d="M357.496 306.721L367.318 301.048L379.908 308.381L370.362 313.915L357.496 306.721Z" fill="#484F72"/>
<path d="M368.702 299.942L378.525 294.408L391.253 301.602L381.707 307.274L368.702 299.942Z" fill="#484F72"/>
<path d="M218.316 253.733L227.585 248.061L254.148 263.832L244.602 269.505L218.316 253.733Z" fill="#484F72"/>
<path d="M275.454 287.214L285.277 281.541L298.005 288.874L288.459 294.408L275.454 287.214Z" fill="#484F72"/>
<path d="M309.074 334.391L318.897 328.718L331.486 336.051L321.94 341.723L309.074 334.391Z" fill="#484F72"/>
<path d="M294.547 325.813L304.369 320.141L317.098 327.473L307.552 333.146L294.547 325.813Z" fill="#484F72"/>
<path d="M208.217 276.146L218.039 270.612L230.768 277.806L221.221 283.478L208.217 276.146Z" fill="#484F72"/>
<path d="M193.414 267.845L203.236 262.311L215.826 269.643L206.28 275.177L193.414 267.845Z" fill="#484F72"/>
<path d="M206.141 260.927L215.964 255.393L228.554 262.587L219.008 268.26L206.141 260.927Z" fill="#484F72"/>
<path d="M220.391 268.951L230.214 263.417L242.804 270.75L233.258 276.284L220.391 268.951Z" fill="#484F72"/>
<path d="M234.641 277.391L244.326 271.857L257.054 279.051L247.508 284.723L234.641 277.391Z" fill="#484F72"/>
<path d="M249.445 286.107L259.129 280.434L271.857 287.767L262.311 293.439L249.445 286.107Z" fill="#484F72"/>
<path d="M263.694 293.993L273.517 288.32L286.245 295.653L276.699 301.325L263.694 293.993Z" fill="#484F72"/>
<path d="M277.945 302.709L287.768 297.036L300.357 304.369L290.95 310.041L277.945 302.709Z" fill="#484F72"/>
<path d="M223.02 284.723L232.843 279.189L302.433 319.449L293.163 324.845L223.02 284.723Z" fill="#484F72"/>
<path d="M403.151 346.981L412.697 341.308L425.148 348.502L415.602 354.175L403.151 346.981Z" fill="#484F72"/>
<path d="M414.772 339.648L424.318 333.976L436.77 341.17L427.362 346.842L414.772 339.648Z" fill="#484F72"/>
<path d="M397.755 316.267L407.301 310.595L419.753 317.927L410.207 323.461L397.755 316.267Z" fill="#484F72"/>
<path d="M239.76 328.718L265.77 313.915L302.433 335.221L278.083 350.301L239.76 328.718Z" fill="#484F72"/>
<path d="M482.286 182.206V310.456L286.245 199.5L285 68.3446L482.286 182.206Z" fill="#8FD1CC"/>
<path d="M380.64 120.43C380.199 119.372 380.413 118.276 381.119 117.982C381.824 117.688 382.753 118.307 383.194 119.365C383.636 120.423 383.421 121.519 382.716 121.813C382.011 122.107 381.082 121.488 380.64 120.43Z" fill="#86A2B7"/>
<path opacity="0.63" d="M321.939 219.561L482.286 234.502V217.209L291.087 202.267L321.939 219.561Z" fill="url(#paint12_linear)"/>
<path opacity="0.63" d="M482.286 202.267L286.245 189.4V167.956L482.286 182.206V202.267Z" fill="url(#paint13_linear)"/>
<path d="M218.039 152.046C210.983 152.599 204.066 151.908 197.287 150.248C190.923 148.726 184.559 146.65 179.716 142.362C174.874 138.073 172.246 130.74 175.013 124.791C177.364 119.811 183.313 116.49 184.144 111.095C185.112 105.422 179.993 99.8883 181.377 94.216C182.76 88.1286 190.369 86.1917 194.658 81.7645C201.852 74.432 199.639 61.1505 207.248 54.233C211.398 50.3592 217.901 49.6674 223.02 52.1577C228 54.648 231.321 60.182 231.321 65.8543C231.321 72.2184 227.585 78.7208 229.799 84.6699C231.459 89.0971 236.163 92.0024 237.131 96.7063C238.377 101.964 234.503 106.944 233.673 112.201C233.119 116.075 234.226 120.087 235.195 123.961C236.301 127.835 237.27 131.847 236.44 135.721C236.163 135.582 233.811 150.801 218.039 152.046Z" fill="url(#paint14_linear)"/>
<path d="M208.908 148.311C204.066 150.801 198.947 152.323 193.551 153.153C188.57 153.983 183.451 154.398 178.748 152.738C174.044 151.078 169.893 146.65 170.17 141.67C170.308 137.381 173.629 133.369 172.522 129.218C171.415 124.93 166.158 122.439 165.466 118.15C164.636 113.447 169.478 109.85 171.138 105.422C174.044 98.0898 168.51 89.3738 171.83 82.1796C173.629 78.3058 178.056 75.6772 182.345 76.0922C186.633 76.3689 190.646 79.2743 192.306 83.2864C194.243 87.8519 193.413 93.5243 196.871 97.1214C199.362 99.75 203.512 100.442 205.726 103.485C208.078 106.806 206.833 111.51 207.939 115.522C208.631 118.427 210.568 120.917 212.505 123.408C214.442 125.76 216.24 128.388 216.932 131.294C216.932 131.155 219.699 142.638 208.908 148.311Z" fill="url(#paint15_linear)"/>
<path d="M215.964 158.41C210.845 159.655 205.588 159.932 200.469 159.517C195.626 159.102 190.646 158.41 186.634 155.782C182.622 153.153 179.716 148.172 181.1 143.468C182.207 139.456 186.219 136.413 186.219 132.262C186.219 127.973 181.791 124.515 182.068 120.226C182.345 115.66 187.741 113.308 190.369 109.434C194.796 103.209 191.614 93.6626 196.318 87.7136C198.947 84.3932 203.651 83.0097 207.663 84.2549C211.675 85.5 214.719 89.2354 215.41 93.3859C216.241 98.0898 214.165 103.347 216.517 107.498C218.316 110.541 222.051 112.201 223.435 115.383C224.957 119.119 222.743 123.269 222.743 127.282C222.743 130.187 223.988 132.954 225.233 135.721C226.478 138.35 227.723 141.255 227.585 144.16C227.447 144.16 227.447 155.643 215.964 158.41Z" fill="url(#paint16_linear)"/>
<g opacity="0.49">
<path opacity="0.49" d="M172.108 270.197L172.8 190.507C188.295 168.095 219.423 171 235.334 190.507L236.025 270.888L172.108 270.197Z" fill="url(#paint17_linear)"/>
</g>
<path d="M171.554 147.204V184.973C171.554 184.973 171.554 205.034 200.884 205.449C236.993 206.002 236.717 184.973 236.717 184.973L235.887 139.18C235.887 139.18 232.428 154.26 205.035 153.568C174.598 152.876 171.554 147.204 171.554 147.204Z" fill="url(#paint18_linear)"/>
<path d="M569.309 243.772L569.17 348.917L441.335 276.422L441.474 172.245L569.309 243.772Z" fill="#F8F9FB"/>
<path d="M441.197 171.83V181.653L569.032 254.286V243.357L441.197 171.83Z" fill="#D3D3D3"/>
<path d="M449.498 208.908L449.636 202.544L516.874 239.898L516.597 246.816L449.498 208.908Z" fill="#E2ECF8"/>
<path d="M470.251 266.184V273.102L511.202 296.345V289.565L470.251 266.184Z" fill="#E2ECF8"/>
<path d="M445.901 264.524V271.303L486.853 294.546V287.767L445.901 264.524Z" fill="#E2ECF8"/>
<path d="M536.243 302.017V309.488L563.913 326.92V319.311L536.243 302.017Z" fill="#E2ECF8"/>
<path d="M535.136 313.777V321.386L562.668 338.68V331.07L535.136 313.777Z" fill="#E2ECF8"/>
<path d="M446.454 253.18V259.959L466.93 271.58V264.801L446.454 253.18Z" fill="#E2ECF8"/>
<path d="M536.382 295.653L536.243 249.859L563.913 265.216V312.393L536.382 295.653Z" fill="#F8C487"/>
<path d="M449.498 182.898C448.886 182.898 448.391 182.402 448.391 181.791C448.391 181.18 448.886 180.684 449.498 180.684C450.109 180.684 450.604 181.18 450.604 181.791C450.604 182.402 450.109 182.898 449.498 182.898Z" fill="#F8F9FB"/>
<path d="M452.818 184.42C452.207 184.42 451.711 183.924 451.711 183.313C451.711 182.702 452.207 182.206 452.818 182.206C453.429 182.206 453.925 182.702 453.925 183.313C453.925 183.924 453.429 184.42 452.818 184.42Z" fill="#F8F9FB"/>
<path d="M446.592 181.376C445.981 181.376 445.486 180.881 445.486 180.269C445.486 179.658 445.981 179.163 446.592 179.163C447.204 179.163 447.699 179.658 447.699 180.269C447.699 180.881 447.204 181.376 446.592 181.376Z" fill="#F8F9FB"/>
<path d="M529.464 292.332C529.464 292.332 523.515 261.896 515.076 260.512C506.636 259.129 508.85 269.505 501.794 265.631C494.738 261.619 494.323 236.578 485.469 236.578C485.469 236.578 480.903 234.917 478.551 243.633C476.338 252.349 473.709 256.777 468.452 252.073C463.056 247.369 461.673 232.15 456.277 231.597C450.881 231.044 447.561 243.218 447.561 245.709L529.464 292.332Z" fill="#E2AAA6"/>
<path d="M569.032 252.211C569.032 252.211 568.893 252.903 568.893 254.148C568.893 255.532 568.755 257.33 568.755 259.82C568.755 264.801 568.617 271.995 568.617 280.711C568.478 298.42 568.478 322.769 568.617 349.609C568.617 350.024 568.617 350.439 568.617 350.716L569.723 350.163C546.757 336.604 526.005 324.43 510.925 315.575C503.454 311.286 497.367 307.689 493.078 305.337C491.002 304.231 489.342 303.262 488.235 302.57C487.129 302.017 486.575 301.602 486.437 301.74C486.437 301.74 486.99 302.155 488.097 302.847C489.204 303.539 490.864 304.507 492.801 305.752C496.951 308.243 503.039 311.978 510.371 316.405C525.313 325.398 546.066 337.711 569.032 351.269L570 352.238V350.993C570 350.578 570 350.301 570 349.886C570 322.908 569.862 298.558 569.585 280.988C569.447 272.134 569.308 265.078 569.308 260.097C569.308 257.607 569.17 255.808 569.17 254.425C569.17 252.903 569.032 252.211 569.032 252.211Z" fill="#E2ECF8"/>
</g>
<defs>
<linearGradient id="paint0_linear" x1="90.4375" y1="118.061" x2="84.713" y2="226.491" gradientUnits="userSpaceOnUse">
<stop stop-color="#F8C487"/>
<stop offset="0.1491" stop-color="#F7C58A" stop-opacity="0.8509"/>
<stop offset="1" stop-color="#F4CC9C" stop-opacity="0"/>
</linearGradient>
<linearGradient id="paint1_linear" x1="117.505" y1="120.829" x2="111.852" y2="227.908" gradientUnits="userSpaceOnUse">
<stop stop-color="#4B3193"/>
<stop offset="1" stop-color="#5B3F94" stop-opacity="0"/>
</linearGradient>
<linearGradient id="paint2_linear" x1="147.768" y1="140.614" x2="153.509" y2="243.22" gradientUnits="userSpaceOnUse">
<stop stop-color="#E2AAA6"/>
<stop offset="1" stop-color="#E4AEA5" stop-opacity="0"/>
</linearGradient>
<linearGradient id="paint3_linear" x1="453.32" y1="389.133" x2="448.938" y2="420.479" gradientUnits="userSpaceOnUse">
<stop stop-color="#D3D3D3" stop-opacity="0.9067"/>
<stop offset="0.9925" stop-color="#E6E6E6"/>
</linearGradient>
<linearGradient id="paint4_linear" x1="416.926" y1="422.488" x2="477.691" y2="377.267" gradientUnits="userSpaceOnUse">
<stop offset="0.00048585" stop-color="white"/>
<stop offset="0.9925" stop-color="#E6E6E6"/>
</linearGradient>
<linearGradient id="paint5_linear" x1="74.0582" y1="223.448" x2="81.1739" y2="286.699" gradientUnits="userSpaceOnUse">
<stop stop-color="#D3D3D3" stop-opacity="0.8689"/>
<stop offset="1" stop-color="#E6E6E6" stop-opacity="0"/>
</linearGradient>
<linearGradient id="paint6_linear" x1="1.362" y1="237.117" x2="149.937" y2="237.117" gradientUnits="userSpaceOnUse">
<stop offset="0.00048585" stop-color="white"/>
<stop offset="0.9925" stop-color="#E6E6E6"/>
</linearGradient>
<linearGradient id="paint7_linear" x1="86.8074" y1="199.904" x2="86.1609" y2="280.393" gradientUnits="userSpaceOnUse">
<stop stop-color="white" stop-opacity="0"/>
<stop offset="0.9929" stop-color="white"/>
</linearGradient>
<linearGradient id="paint8_linear" x1="68.7362" y1="188.662" x2="68.0262" y2="277.045" gradientUnits="userSpaceOnUse">
<stop stop-color="white" stop-opacity="0"/>
<stop offset="0.9929" stop-color="white"/>
</linearGradient>
<linearGradient id="paint9_linear" x1="325.187" y1="316.697" x2="343.246" y2="436.456" gradientUnits="userSpaceOnUse">
<stop stop-color="#D3D3D3" stop-opacity="0.8689"/>
<stop offset="0.9977" stop-color="#E6E6E6" stop-opacity="0"/>
</linearGradient>
<linearGradient id="paint10_linear" x1="405.203" y1="31.7017" x2="381.692" y2="215.513" gradientUnits="userSpaceOnUse">
<stop offset="0.00048585" stop-color="white"/>
<stop offset="0.9925" stop-color="#E6E6E6"/>
</linearGradient>
<linearGradient id="paint11_linear" x1="374.478" y1="255.812" x2="289.608" y2="334.51" gradientUnits="userSpaceOnUse">
<stop offset="0.00048585" stop-color="white"/>
<stop offset="0.9925" stop-color="#E6E6E6"/>
</linearGradient>
<linearGradient id="paint12_linear" x1="321.743" y1="153.857" x2="494.169" y2="302.223" gradientUnits="userSpaceOnUse">
<stop stop-color="white" stop-opacity="0"/>
<stop offset="0.9929" stop-color="white"/>
</linearGradient>
<linearGradient id="paint13_linear" x1="312.524" y1="124.081" x2="490.326" y2="277.073" gradientUnits="userSpaceOnUse">
<stop stop-color="white" stop-opacity="0"/>
<stop offset="0.9929" stop-color="white"/>
</linearGradient>
<linearGradient id="paint14_linear" x1="200.741" y1="196.631" x2="208.545" y2="80.9575" gradientUnits="userSpaceOnUse">
<stop stop-color="#67D690"/>
<stop offset="1" stop-color="#00A99D"/>
</linearGradient>
<linearGradient id="paint15_linear" x1="209.906" y1="185.017" x2="180.97" y2="100.664" gradientUnits="userSpaceOnUse">
<stop stop-color="#67D690"/>
<stop offset="1" stop-color="#00A99D"/>
</linearGradient>
<linearGradient id="paint16_linear" x1="198.413" y1="150.534" x2="180.282" y2="201.162" gradientUnits="userSpaceOnUse">
<stop stop-color="#67D690"/>
<stop offset="1" stop-color="#00A99D"/>
</linearGradient>
<linearGradient id="paint17_linear" x1="201.85" y1="210.261" x2="206.901" y2="264.699" gradientUnits="userSpaceOnUse">
<stop stop-color="#D3D3D3" stop-opacity="0.8689"/>
<stop offset="1" stop-color="#E6E6E6" stop-opacity="0"/>
</linearGradient>
<linearGradient id="paint18_linear" x1="204.106" y1="207.963" x2="204.106" y2="165.442" gradientUnits="userSpaceOnUse">
<stop offset="0.00048585" stop-color="white"/>
<stop offset="0.9925" stop-color="#E6E6E6"/>
</linearGradient>
<clipPath id="clip0">
<rect width="570" height="433.449" fill="white" transform="matrix(-1 0 0 1 570 0)"/>
</clipPath>
</defs>
</svg>
