<svg width="125" height="36" viewBox="0 0 125 36" fill="none" xmlns="http://www.w3.org/2000/svg">
<path d="M121.063 0C123.219 0 125 1.78178 125 3.93813V32.0619C125 34.2182 123.219 36 121.063 36H3.93661C1.78109 35.9949 0 34.2132 0 32.0568V3.93813C0 1.78178 1.78109 0 3.93661 0H121.063Z" fill="white"/>
<path opacity="0.6" d="M43.667 8.81277C43.667 9.56193 43.4798 10.22 43.0092 10.6857C42.4475 11.2475 41.7897 11.531 40.9498 11.531C40.1099 11.531 39.4521 11.2475 38.8904 10.6857C38.3288 10.1238 38.0454 9.46575 38.0454 8.62548C38.0454 7.78521 38.3288 7.12717 38.8904 6.5653C39.4521 6.00344 40.1099 5.71997 40.9498 5.71997C41.3242 5.71997 41.6987 5.81615 42.0731 6.00344C42.4475 6.19072 42.7309 6.37801 42.9181 6.66148L42.4475 7.13223C42.0731 6.66148 41.6025 6.47419 40.9498 6.47419C40.3881 6.47419 39.8265 6.66148 39.4521 7.13223C38.9815 7.50681 38.7943 8.06868 38.7943 8.72672C38.7943 9.38476 38.9815 9.94663 39.4521 10.3212C39.9226 10.6958 40.3881 10.9793 40.9498 10.9793C41.6076 10.9793 42.0731 10.792 42.5437 10.3212C42.827 10.0377 43.0142 9.66317 43.0142 9.19747H40.9549V8.44832H43.667V8.81277ZM47.9729 6.46913H45.443V8.2509H47.7857V8.90895H45.443V10.6907H47.9729V11.4399H44.6941V5.81108H47.9729V6.46913ZM51.0696 11.4348H50.3207V6.46913H48.7269V5.81108H52.6635V6.46913H51.0696V11.4348ZM55.3756 11.4348V5.81108H56.1245V11.4348H55.3756ZM59.3122 11.4348H58.5633V6.46913H56.9695V5.81108H60.8099V6.46913H59.2161V11.4348H59.3122ZM68.2126 10.6857C67.6509 11.2475 66.9932 11.531 66.1532 11.531C65.3082 11.531 64.6555 11.2475 64.0938 10.6857C63.5322 10.1238 63.2488 9.46575 63.2488 8.62548C63.2488 7.78521 63.5322 7.12717 64.0938 6.5653C64.6555 6.00344 65.3133 5.71997 66.1532 5.71997C66.9932 5.71997 67.6509 6.00344 68.2126 6.5653C68.7742 7.12717 69.0576 7.78521 69.0576 8.62548C69.0576 9.46575 68.7793 10.1238 68.2126 10.6857ZM64.6555 10.22C65.0299 10.5945 65.5916 10.878 66.1532 10.878C66.7149 10.878 67.2765 10.6907 67.6509 10.22C68.0254 9.84539 68.3087 9.28352 68.3087 8.62548C68.3087 7.96744 68.1215 7.40557 67.6509 7.03099C67.2765 6.65642 66.7149 6.37295 66.1532 6.37295C65.5916 6.37295 65.0299 6.56024 64.6555 7.03099C64.281 7.40557 63.9977 7.96744 63.9977 8.62548C63.9977 9.27846 64.1849 9.84033 64.6555 10.22ZM70.0898 11.4348V5.81108H70.9348L73.652 10.2149V5.81108H74.4009V11.4348H73.652L70.7476 6.84371V11.4348H70.0898Z" fill="black" stroke="black" stroke-width="0.2" stroke-miterlimit="10"/>
<path opacity="0.6" d="M63.0615 19.6856C60.8149 19.6856 59.0338 21.3712 59.0338 23.7148C59.0338 25.9623 60.8149 27.7441 63.0615 27.7441C65.3081 27.7441 67.0892 26.0585 67.0892 23.7148C67.0892 21.2801 65.3081 19.6856 63.0615 19.6856ZM63.0615 26.0585C61.8421 26.0585 60.8149 25.0258 60.8149 23.6237C60.8149 22.2216 61.8471 21.1889 63.0615 21.1889C64.2759 21.1889 65.3081 22.1254 65.3081 23.6237C65.3081 25.0258 64.281 26.0585 63.0615 26.0585ZM54.3483 19.6856C52.1017 19.6856 50.3207 21.3712 50.3207 23.7148C50.3207 25.9623 52.1017 27.7441 54.3483 27.7441C56.5949 27.7441 58.376 26.0585 58.376 23.7148C58.376 21.2801 56.5949 19.6856 54.3483 19.6856ZM54.3483 26.0585C53.1289 26.0585 52.1017 25.0258 52.1017 23.6237C52.1017 22.2216 53.134 21.1889 54.3483 21.1889C55.5678 21.1889 56.5949 22.1254 56.5949 23.6237C56.5949 25.0258 55.5627 26.0585 54.3483 26.0585ZM43.9452 20.9055V22.5911H47.9729C47.8767 23.5275 47.5023 24.2767 47.0368 24.7474C46.4751 25.3093 45.539 25.9673 43.9452 25.9673C41.4152 25.9673 39.5431 23.9983 39.5431 21.4673C39.5431 18.9364 41.5114 16.9673 43.9452 16.9673C45.2557 16.9673 46.2879 17.5292 47.0368 18.1872L48.2562 16.9673C47.224 16.0309 45.9135 15.2817 44.0413 15.2817C40.6664 15.2817 37.762 18.0961 37.762 21.4673C37.762 24.8385 40.6664 27.6529 44.0413 27.6529C45.9135 27.6529 47.2291 27.0911 48.3524 25.8712C49.4757 24.7474 49.8501 23.1529 49.8501 21.933C49.8501 21.5585 49.8501 21.1839 49.7539 20.9004L43.9452 20.9055ZM86.4889 22.2165C86.1145 21.2801 85.1784 19.6856 83.1139 19.6856C81.0545 19.6856 79.3645 21.2801 79.3645 23.7148C79.3645 25.9623 81.0495 27.7441 83.3012 27.7441C85.0822 27.7441 86.2055 26.6203 86.58 25.9623L85.2695 25.0258C84.7989 25.6839 84.2372 26.1496 83.3012 26.1496C82.3651 26.1496 81.8034 25.775 81.3328 24.9297L86.6761 22.6822L86.4889 22.2165ZM81.0546 23.5275C81.0546 22.0292 82.274 21.1839 83.1139 21.1839C83.7717 21.1839 84.4244 21.5585 84.6117 22.0292L81.0546 23.5275ZM76.6474 27.3695H78.4285V15.6563H76.6474V27.3695ZM73.8391 20.5309C73.3685 20.0601 72.6197 19.5944 71.6836 19.5944C69.7153 19.5944 67.8431 21.3762 67.8431 23.6237C67.8431 25.8712 69.6242 27.5618 71.6836 27.5618C72.6197 27.5618 73.3685 27.0911 73.743 26.6254H73.8391V27.1822C73.8391 28.6805 72.9941 29.5258 71.6836 29.5258C70.6514 29.5258 69.9025 28.7767 69.7153 28.1186L68.2176 28.7767C68.6881 29.8093 69.8114 31.1203 71.7797 31.1203C73.8391 31.1203 75.5291 29.9004 75.5291 26.9949V19.8729H73.8442L73.8391 20.5309ZM71.7747 26.0585C70.5552 26.0585 69.5281 25.0258 69.5281 23.6237C69.5281 22.2216 70.5603 21.1889 71.7747 21.1889C72.9891 21.1889 73.9302 22.2216 73.9302 23.6237C73.9302 25.0258 72.9941 26.0585 71.7747 26.0585ZM94.6404 15.6563H90.4204V27.3745H92.2015V22.9707H94.6353C96.6036 22.9707 98.4758 21.5635 98.4758 19.316C98.4758 17.0686 96.6087 15.6563 94.6404 15.6563ZM94.7315 21.2801H92.2015V17.2508H94.7315C96.042 17.2508 96.7909 18.3745 96.7909 19.2199C96.6998 20.2474 95.9509 21.2801 94.7315 21.2801ZM105.509 19.5894C104.199 19.5894 102.883 20.1513 102.417 21.3712L104.011 22.0292C104.386 21.3712 104.947 21.1839 105.605 21.1839C106.541 21.1839 107.386 21.7457 107.477 22.6822V22.7784C107.194 22.5911 106.445 22.3076 105.696 22.3076C104.011 22.3076 102.321 23.2441 102.321 24.9347C102.321 26.5292 103.728 27.5618 105.226 27.5618C106.445 27.5618 107.007 27 107.472 26.4381H107.568V27.3745H109.253V22.8745C109.071 20.8093 107.477 19.5894 105.509 19.5894ZM105.322 26.0585C104.76 26.0585 103.915 25.775 103.915 25.0258C103.915 24.0894 104.947 23.8059 105.787 23.8059C106.536 23.8059 106.911 23.9932 107.381 24.1805C107.194 25.3093 106.258 26.0585 105.322 26.0585ZM115.158 19.8729L113.19 24.9347H113.094L111.035 19.8729H109.162L112.254 26.9949L110.473 30.933H112.254L117.03 19.8729H115.158ZM99.417 27.3695H101.198V15.6563H99.417V27.3695Z" fill="black"/>
<path d="M8.9965 6.28174C8.71315 6.5652 8.62207 7.03089 8.62207 7.59276V28.311C8.62207 28.8729 8.80929 29.3436 9.09264 29.622L9.18878 29.7182L20.8063 18.0961V17.9088L8.9965 6.28174Z" fill="url(#paint0_linear)"/>
<path d="M24.5507 22.0291L20.7102 18.1872V17.9037L24.5507 14.0618L24.6468 14.1579L29.2362 16.7851C30.5467 17.5342 30.5467 18.7541 29.2362 19.5033L24.5507 22.0291Z" fill="url(#paint1_linear)"/>
<path d="M24.6418 21.9331L20.7052 17.995L8.99658 29.7132C9.46715 30.184 10.1199 30.184 10.9649 29.8094L24.6418 21.9331Z" fill="url(#paint2_linear)"/>
<path d="M24.6418 14.0619L10.9649 6.28178C10.1199 5.81103 9.46715 5.9072 8.99658 6.37796L20.7103 18L24.6418 14.0619Z" fill="url(#paint3_linear)"/>
<path opacity="0.2" d="M24.5507 21.8419L10.9649 29.5258C10.216 29.9966 9.55823 29.9004 9.09272 29.5258L8.99658 29.622L9.09272 29.7182C9.56329 30.0928 10.216 30.1889 10.9649 29.7182L24.5507 21.8419Z" fill="black"/>
<path opacity="0.12" d="M8.9965 29.5259C8.71315 29.2424 8.62207 28.7767 8.62207 28.2148V28.311C8.62207 28.8729 8.80929 29.3436 9.09264 29.622V29.5259H8.9965ZM29.2361 19.2148L24.5507 21.842L24.6468 21.9381L29.2361 19.311C29.8939 18.9364 30.1722 18.4657 30.1722 18C30.1722 18.4657 29.7978 18.8403 29.2361 19.2148Z" fill="black"/>
<path opacity="0.25" d="M10.9648 6.37292L29.2361 16.7801C29.7978 17.1547 30.1722 17.5293 30.1722 18C30.1722 17.5293 29.8889 17.0636 29.2361 16.689L10.9648 6.2818C9.65429 5.53265 8.62207 6.09451 8.62207 7.59283V7.689C8.62207 6.2818 9.64923 5.62376 10.9648 6.37292Z" fill="white"/>
<defs>
<linearGradient id="paint0_linear" x1="19.6767" y1="7.40865" x2="3.94465" y2="23.1337" gradientUnits="userSpaceOnUse">
<stop stop-color="#00A0FF"/>
<stop offset="0.007" stop-color="#00A1FF"/>
<stop offset="0.26" stop-color="#00BEFF"/>
<stop offset="0.512" stop-color="#00D2FF"/>
<stop offset="0.76" stop-color="#00DFFF"/>
<stop offset="1" stop-color="#00E3FF"/>
</linearGradient>
<linearGradient id="paint1_linear" x1="30.9571" y1="18.0429" x2="8.28427" y2="18.0429" gradientUnits="userSpaceOnUse">
<stop stop-color="#FFE000"/>
<stop offset="0.409" stop-color="#FFBD00"/>
<stop offset="0.775" stop-color="#FFA500"/>
<stop offset="1" stop-color="#FF9C00"/>
</linearGradient>
<linearGradient id="paint2_linear" x1="22.5069" y1="20.1376" x2="1.17386" y2="41.4622" gradientUnits="userSpaceOnUse">
<stop stop-color="#FF3A44"/>
<stop offset="1" stop-color="#C31162"/>
</linearGradient>
<linearGradient id="paint3_linear" x1="6.05845" y1="-0.553242" x2="15.5849" y2="8.96968" gradientUnits="userSpaceOnUse">
<stop stop-color="#32A071"/>
<stop offset="0.069" stop-color="#2DA771"/>
<stop offset="0.476" stop-color="#15CF74"/>
<stop offset="0.801" stop-color="#06E775"/>
<stop offset="1" stop-color="#00F076"/>
</linearGradient>
</defs>
</svg>
