<svg width="836" height="750" viewBox="0 0 836 750" fill="none" xmlns="http://www.w3.org/2000/svg">
<g style="mix-blend-mode:overlay" opacity="0.06">
<path fill-rule="evenodd" clip-rule="evenodd" d="M318.674 -92.8678L-6.36541 232.171C-50.2457 276.052 -50.2457 347.56 -6.36541 391.441L318.674 716.48C362.554 760.36 434.063 760.36 477.943 716.48L802.982 391.441C846.863 347.56 846.863 276.052 802.982 232.171L477.943 -92.8679C434.063 -136.748 362.554 -136.748 318.674 -92.8678ZM762.352 272.801C785.105 295.554 785.105 331.308 762.352 354.061L437.313 679.1C414.56 701.853 378.806 701.853 356.053 679.1L31.0141 354.061C8.26136 331.308 8.26137 295.554 31.0141 272.801L356.053 -52.238C378.806 -74.9907 414.56 -74.9907 437.313 -52.238L762.352 272.801ZM395.063 87.5407L167.535 315.068L204.915 352.448L432.442 124.92L395.063 87.5407ZM261.775 409.308L430.795 240.287C468.175 202.908 528.307 204.533 560.811 237.037C598.191 274.416 596.566 334.549 560.811 370.303L391.791 539.323L354.411 501.944L523.432 332.923C538.058 318.297 539.684 293.919 523.432 277.667C508.805 263.04 484.427 261.415 468.175 277.667L299.155 446.687L261.775 409.308Z" fill="white"/>
</g>
</svg>
