<svg width="41" height="33" viewBox="0 0 41 33" fill="none" xmlns="http://www.w3.org/2000/svg">
<path d="M13.356 15.198C14.9227 15.8873 16.1447 16.9213 17.022 18.3C17.8993 19.6787 18.338 21.308 18.338 23.188C18.338 25.8827 17.492 28.076 15.8 29.768C14.108 31.3973 11.946 32.212 9.314 32.212C6.682 32.212 4.48867 31.366 2.734 29.674C1.042 27.982 0.196 25.82 0.196 23.188C0.196 21.9347 0.352667 20.6813 0.666 19.428C0.979334 18.1747 1.66867 16.2947 2.734 13.788L8.186 0.251996H17.492L13.356 15.198ZM35.54 15.198C37.1067 15.8873 38.3287 16.9213 39.206 18.3C40.0833 19.6787 40.522 21.308 40.522 23.188C40.522 25.8827 39.676 28.076 37.984 29.768C36.292 31.3973 34.13 32.212 31.498 32.212C28.866 32.212 26.6727 31.366 24.918 29.674C23.226 27.982 22.38 25.82 22.38 23.188C22.38 21.9347 22.5367 20.6813 22.85 19.428C23.1633 18.1747 23.8527 16.2947 24.918 13.788L30.37 0.251996H39.676L35.54 15.198Z" fill="#E6E6E6"/>
</svg>
